<?xml version="1.0" encoding="UTF-8"?>
<svg version="1.1" xmlns="http://www.w3.org/2000/svg" width="225" height="225">
<path d="M0 0 C1.98 0 3.96 0 6 0 C10.92096512 9.13852171 14.65129541 18.75418883 18.5 28.375 C19.48139699 30.81758807 20.46398166 33.25969561 21.44677734 35.70172119 C22.08038873 37.27619712 22.71353592 38.85085994 23.34619141 40.42572021 C25.84518322 46.63938006 28.39964381 52.8279781 31 59 C33.32672581 55.50991128 34.84361068 51.84520916 36.44921875 47.9921875 C36.78492386 47.19330109 37.12062897 46.39441467 37.46650696 45.57131958 C38.54310472 43.00709881 39.61529334 40.4410595 40.6875 37.875 C41.3896996 36.20170776 42.09217093 34.52852952 42.79492188 32.85546875 C45.56768793 26.24652496 48.33628642 19.63631698 51.04541016 13.00097656 C51.36782181 12.21224152 51.69023346 11.42350647 52.02241516 10.61087036 C52.63265224 9.11530084 53.24065426 7.61881685 53.84611511 6.12130737 C55.89010372 1.10989628 55.89010372 1.10989628 57 0 C58.99958364 -0.04080783 61.00045254 -0.04254356 63 0 C70.13472161 12.34306839 73.29335315 24.83417558 73.5 39.0625 C73.51853027 39.81595703 73.53706055 40.56941406 73.55615234 41.34570312 C73.37428785 58.2484034 65.60364144 73.75949909 58.96801758 88.90917969 C57.79298594 91.6035137 56.63609672 94.30511207 55.48046875 97.0078125 C55.11600143 97.82347687 54.75153412 98.63914124 54.37602234 99.47952271 C51.71525734 105.7249141 51.93501504 109.24460954 54.41015625 115.6484375 C54.95410892 116.89363036 55.50499615 118.1358151 56.0625 119.375 C56.34416016 120.01566406 56.62582031 120.65632813 56.91601562 121.31640625 C57.60459421 122.88029659 58.30144711 124.44053941 59 126 C59.763125 125.814375 60.52625 125.62875 61.3125 125.4375 C64 125 64 125 67 126 C68.36503362 128.63945473 69.55481498 131.20155727 70.6875 133.9375 C71.00783203 134.67935547 71.32816406 135.42121094 71.65820312 136.18554688 C74 141.69301373 74 141.69301373 74 144 C74.99515625 143.67773438 75.9903125 143.35546875 77.015625 143.0234375 C88.57594436 139.74123628 100.06768782 141.68257405 110.42578125 147.3203125 C120.59969142 153.57854968 127.40155948 162.95916765 130.3125 174.5625 C132.54200185 186.82476017 130.08598365 198.14744912 123.01953125 208.45703125 C117.8439152 214.97410291 111.77516324 219.9621219 104 223 C102.66195312 223.53173828 102.66195312 223.53173828 101.296875 224.07421875 C91.17299555 226.91706168 79.4278456 225.94003491 69.90234375 221.67578125 C57.77389405 214.67294825 51.44296241 203.87299021 46.1875 191.3125 C45.55835693 189.83801392 45.55835693 189.83801392 44.91650391 188.33374023 C40.49978818 177.93567607 36.22651534 167.47662562 32 157 C29.08556143 159.91443857 28.01278526 163.56820579 26.515625 167.33984375 C25.82037135 169.06057065 25.12505681 170.78127296 24.4296875 172.50195312 C23.34395402 175.20628794 22.26040234 177.91147757 21.17871094 180.61743164 C7.61728135 214.47422054 7.61728135 214.47422054 -10.30078125 222.90625 C-19.34540852 226.57122198 -31.81464152 226.51136205 -41.0625 223.4375 C-52.95880831 218.25567245 -61.17287474 208.85833414 -66 197 C-69.70423302 185.58021428 -68.17349889 174.74203307 -63.3125 163.875 C-58.60415684 155.20454165 -51.77180369 149.30992559 -43 145 C-42.31550781 144.6596875 -41.63101563 144.319375 -40.92578125 143.96875 C-36.01119125 141.94674726 -31.13953542 141.72967412 -25.875 141.6875 C-24.87122314 141.67904053 -24.87122314 141.67904053 -23.84716797 141.67041016 C-19.20092241 141.73801274 -15.37195379 142.57485662 -11 144 C-10.82984375 143.45472656 -10.6596875 142.90945312 -10.484375 142.34765625 C-9.14476231 138.1791806 -7.71020399 134.05738966 -6.0625 130 C-5.76472656 129.2575 -5.46695313 128.515 -5.16015625 127.75 C-4 126 -4 126 -2.12109375 125.1875 C0.17495438 124.98453442 1.79424301 125.39557241 4 126 C5.20386463 123.27704434 6.38815758 120.54815863 7.5625 117.8125 C7.90474609 117.04357422 8.24699219 116.27464844 8.59960938 115.48242188 C9.07817383 114.35610352 9.07817383 114.35610352 9.56640625 113.20703125 C9.86490479 112.5210083 10.16340332 111.83498535 10.47094727 111.12817383 C11.81038188 105.74014818 8.6256172 100.41363354 6.54296875 95.54296875 C5.83489312 93.85498265 5.1272246 92.16682573 4.41992188 90.47851562 C3.31233818 87.84858209 2.20143736 85.22020736 1.08276367 82.5949707 C-10.87873188 54.46206775 -10.87873188 54.46206775 -10.5 39.0625 C-10.48791504 38.23041016 -10.47583008 37.39832031 -10.46337891 36.54101562 C-10.04668349 23.25727081 -6.64551297 11.49673743 0 0 Z M55 142 C54.67 142.33 54.34 142.66 54 143 C54.36157588 148.66468873 55.85540158 156.85540158 60 161 C61.66617115 161.04063832 63.33388095 161.042721 65 161 C66.36687861 156.51829499 65.55234071 154.04122331 63.6875 149.8125 C63.01267578 148.24435547 63.01267578 148.24435547 62.32421875 146.64453125 C61.13748307 143.92703816 61.13748307 143.92703816 59 142 C57.68 142 56.36 142 55 142 Z M14 146 C7.62668867 156.55711581 7.62668867 156.55711581 5.24609375 168.15625 C5.61927734 169.06890625 5.61927734 169.06890625 6 170 C6.99 170.33 7.98 170.66 9 171 C13.19477391 167.49503335 14.86317109 163.43736346 16.875 158.5 C17.20757812 157.74074219 17.54015625 156.98148438 17.8828125 156.19921875 C18.18703125 155.46316406 18.49125 154.72710937 18.8046875 153.96875 C19.22210205 152.97004883 19.22210205 152.97004883 19.64794922 151.95117188 C20.11210611 149.37867403 19.33856819 148.18209117 18 146 C16.68 146 15.36 146 14 146 Z M-41 171 C-44.35555823 176.01969687 -45.78383634 180.95326254 -45 187 C-42.96320905 192.90669375 -40.56586297 197.40346304 -35.1875 200.75 C-28.74625211 203.27597957 -23.87478215 203.30044174 -17.37109375 201.15234375 C-12.32121202 198.69811787 -9.13177325 194.09897115 -7 189 C-6.01242604 182.24775017 -7.01371314 176.57306124 -11 171 C-16.60205359 165.67804909 -21.26746775 164.4082533 -28.88671875 164.56640625 C-33.99040746 165.27720857 -37.43460263 167.32153506 -41 171 Z M72.5625 173.125 C69.70271101 178.38701174 69.22321905 183.10868382 70 189 C72.06468734 194.02892725 75.30099281 198.22331394 80 201 C86.00729512 203.21382085 91.05510543 203.43828657 97 201 C102.28074672 198.15652099 105.56389832 194.70992933 107.75 189.0625 C108.67007243 181.47190244 107.34533821 176.28958489 103 170 C98.9332107 165.79232885 94.76058451 164.66557173 89 164.375 C81.51896999 164.71504682 77.1187571 167.28364474 72.5625 173.125 Z " fill="#3B3B3B" transform="translate(81,0)"/>
<path d="M0 0 C2.64 5.94 5.28 11.88 8 18 C13.58279722 17.23590473 13.58279722 17.23590473 17.125 15.9375 C26.49420956 13.67075575 35.46981288 14.39145088 44 19 C51.75173208 24.3061784 57.33614875 30.91399573 60 40 C61.80078751 50.71077095 60.30568921 59.98188571 54 69 C48.87767034 75.74253125 41.93774635 79.35408455 34 82 C25.29136379 82.6369626 17.5742959 82.78612005 10 78 C9.30390625 77.57589844 8.6078125 77.15179688 7.890625 76.71484375 C-0.98531011 70.72525596 -4.99388357 61.42559948 -8.92578125 51.796875 C-9.57537056 50.23564911 -9.57537056 50.23564911 -10.23808289 48.6428833 C-11.14415511 46.45977172 -12.04561167 44.27473919 -12.94262695 42.08789062 C-14.31601227 38.74144185 -15.70464197 35.40163465 -17.09570312 32.0625 C-17.97745915 29.93266266 -18.85834921 27.80246656 -19.73828125 25.671875 C-20.15177322 24.67597351 -20.5652652 23.68007202 -20.99128723 22.6539917 C-21.37226059 21.72242249 -21.75323395 20.79085327 -22.14575195 19.83105469 C-22.48073196 19.01658875 -22.81571198 18.2021228 -23.1608429 17.36297607 C-24.02699865 14.92397472 -24.55496692 12.54669308 -25 10 C-21.21091124 8.32742736 -17.41832115 6.66294885 -13.625 5 C-12.00464844 4.28457031 -12.00464844 4.28457031 -10.3515625 3.5546875 C-9.3203125 3.10351562 -8.2890625 2.65234375 -7.2265625 2.1875 C-6.27346191 1.76855469 -5.32036133 1.34960938 -4.33837891 0.91796875 C-2 0 -2 0 0 0 Z M-7 7 C-7.33 7.33 -7.66 7.66 -8 8 C-7.63842412 13.66468873 -6.14459842 21.85540158 -2 26 C-0.33382885 26.04063832 1.33388095 26.042721 3 26 C4.36687861 21.51829499 3.55234071 19.04122331 1.6875 14.8125 C1.01267578 13.24435547 1.01267578 13.24435547 0.32421875 11.64453125 C-0.86251693 8.92703816 -0.86251693 8.92703816 -3 7 C-4.32 7 -5.64 7 -7 7 Z M10.5625 38.125 C7.70271101 43.38701174 7.22321905 48.10868382 8 54 C10.06468734 59.02892725 13.30099281 63.22331394 18 66 C24.00729512 68.21382085 29.05510543 68.43828657 35 66 C40.28074672 63.15652099 43.56389832 59.70992933 45.75 54.0625 C46.67007243 46.47190244 45.34533821 41.28958489 41 35 C36.9332107 30.79232885 32.76058451 29.66557173 27 29.375 C19.51896999 29.71504682 15.1187571 32.28364474 10.5625 38.125 Z " fill="#EEB043" transform="translate(143,135)"/>
<path d="M0 0 C5.73971963 1.81254304 11.38391089 3.83806306 17 6 C17.6710376 6.2489502 18.3420752 6.49790039 19.03344727 6.75439453 C20.72523791 7.41688057 22.3683302 8.20081479 24 9 C25.3966245 13.1898735 23.72227685 15.86658714 22.09765625 19.75390625 C21.78227402 20.52822495 21.46689178 21.30254364 21.14195251 22.10032654 C20.46779376 23.75058376 19.78906939 25.39898193 19.10620117 27.0456543 C18.08948153 29.49743506 17.0853683 31.95403138 16.08398438 34.41210938 C14.42482164 38.46987046 12.73754501 42.51503557 11.03204346 46.55352783 C10.33755724 48.19981625 9.64699144 49.84776341 8.96014404 51.49725342 C7.94393256 53.92991527 6.91000274 56.35430172 5.87109375 58.77734375 C5.57106949 59.50200333 5.27104523 60.2266629 4.96192932 60.97328186 C0.97245863 70.13706277 -5.71651066 77.09141165 -15.0625 80.8125 C-23.80981605 83.40982593 -33.45147519 83.19013961 -41.75390625 79.33203125 C-45.64474683 77.02459362 -48.84214667 74.22129235 -52 71 C-52.495 70.50371094 -52.99 70.00742188 -53.5 69.49609375 C-60.22199253 62.15391739 -60.83230209 53.78167028 -60.4765625 44.2734375 C-59.79544597 35.71572198 -55.2779086 28.19623799 -49 22.46484375 C-40.17829294 16.00363253 -31.77078072 14.23779858 -21 15 C-18.54629567 15.64740595 -16.32006555 16.4218462 -14 17.44140625 C-11.14210068 18.2396086 -9.74791083 18.18142663 -7 17 C-5.64459889 14.46012225 -4.67374154 12.2517798 -3.75 9.5625 C-3.24489391 8.18876449 -2.73968992 6.81506496 -2.234375 5.44140625 C-1.82703125 4.30574219 -1.4196875 3.17007813 -1 2 C-0.67 1.34 -0.34 0.68 0 0 Z M13 11 C6.62668867 21.55711581 6.62668867 21.55711581 4.24609375 33.15625 C4.61927734 34.06890625 4.61927734 34.06890625 5 35 C5.99 35.33 6.98 35.66 8 36 C12.19477391 32.49503335 13.86317109 28.43736346 15.875 23.5 C16.20757812 22.74074219 16.54015625 21.98148438 16.8828125 21.19921875 C17.18703125 20.46316406 17.49125 19.72710937 17.8046875 18.96875 C18.22210205 17.97004883 18.22210205 17.97004883 18.64794922 16.95117188 C19.11210611 14.37867403 18.33856819 13.18209117 17 11 C15.68 11 14.36 11 13 11 Z M-42 36 C-45.35555823 41.01969687 -46.78383634 45.95326254 -46 52 C-43.96320905 57.90669375 -41.56586297 62.40346304 -36.1875 65.75 C-29.74625211 68.27597957 -24.87478215 68.30044174 -18.37109375 66.15234375 C-13.32121202 63.69811787 -10.13177325 59.09897115 -8 54 C-7.01242604 47.24775017 -8.01371314 41.57306124 -12 36 C-17.60205359 30.67804909 -22.26746775 29.4082533 -29.88671875 29.56640625 C-34.99040746 30.27720857 -38.43460263 32.32153506 -42 36 Z " fill="#EFB144" transform="translate(82,135)"/>
<path d="M0 0 C0.66 0 1.32 0 2 0 C5.28077409 7.26457119 6.20413478 14.29638054 6.3125 22.1875 C6.33006348 22.84524414 6.34762695 23.50298828 6.36572266 24.18066406 C6.34919873 38.05415128 1.14413361 50.44843366 -4.125 63 C-4.80431857 64.64196239 -5.48253212 66.28438236 -6.15966797 67.92724609 C-7.4913373 71.1541078 -8.82885446 74.37843271 -10.171875 77.60058594 C-12.14936449 82.34978156 -14.08461065 87.1156259 -16.01464844 91.88427734 C-18.86715035 98.92521545 -21.78931931 105.90774621 -25.00390625 112.79296875 C-26.51261049 116.13578402 -27.76270109 119.54858724 -29 123 C-35.20477864 121.06375702 -41.10825719 118.74390859 -47 116 C-46.30047704 111.27676994 -44.5521939 107.17540612 -42.7109375 102.80859375 C-42.20837685 101.60132126 -42.20837685 101.60132126 -41.69566345 100.36965942 C-40.59305967 97.72379561 -39.48402403 95.08067839 -38.375 92.4375 C-37.60136725 90.58408634 -36.82817946 88.73048689 -36.05541992 86.87670898 C-34.08371288 82.14928746 -32.10705182 77.42395479 -30.12921143 72.69909668 C-27.48885352 66.38798337 -24.85863709 60.07263531 -22.22738647 53.75772095 C-21.31521085 51.56900453 -20.40239566 49.38055567 -19.48950195 47.19213867 C-12.93934245 31.48355715 -6.46537962 15.74362898 0 0 Z " fill="#C9C9C9" transform="translate(140,15)"/>
<path d="M0 0 C1.09667969 1.55053711 1.09667969 1.55053711 1.921875 3.52734375 C2.22480469 4.23697266 2.52773437 4.94660156 2.83984375 5.67773438 C3.14019531 6.42345703 3.44054687 7.16917969 3.75 7.9375 C4.06582031 8.67935547 4.38164062 9.42121094 4.70703125 10.18554688 C7 15.65988569 7 15.65988569 7 18 C8.49273437 17.51660156 8.49273437 17.51660156 10.015625 17.0234375 C21.57594436 13.74123628 33.06768782 15.68257405 43.42578125 21.3203125 C53.59969142 27.57854968 60.40155948 36.95916765 63.3125 48.5625 C65.54200185 60.82476017 63.08598365 72.14744912 56.01953125 82.45703125 C50.8439152 88.97410291 44.77516324 93.9621219 37 97 C36.10796875 97.35449219 35.2159375 97.70898438 34.296875 98.07421875 C24.17299555 100.91706168 12.4278456 99.94003491 2.90234375 95.67578125 C-9.64079311 88.43351246 -15.84493102 77.18852201 -21.3125 64.25 C-21.75400391 63.23550781 -22.19550781 62.22101563 -22.65039062 61.17578125 C-24.53665981 56.77930085 -26.19359559 52.73530028 -27 48 C-25.35 48 -23.7 48 -22 48 C-21.67 47.34 -21.34 46.68 -21 46 C-20.34 46 -19.68 46 -19 46 C-18.67314209 46.80107178 -18.34628418 47.60214355 -18.00952148 48.42749023 C-16.76999345 51.44599275 -15.51795662 54.45868516 -14.25756836 57.46850586 C-13.71842375 58.76299865 -13.18409459 60.05950946 -12.6550293 61.3581543 C-7.83248684 73.17954266 -3.10203175 82.6759613 9 88 C9.76699219 88.36480469 10.53398437 88.72960937 11.32421875 89.10546875 C19.09874902 91.70454529 29.28960225 90.95674793 36.65625 87.4453125 C45.09158489 82.24352265 51.60304 75.8144183 54 66 C55.57661041 55.34658023 54.53131472 45.88687085 48 37 C43.35436666 31.81574251 38.58955622 28.24325318 32 26 C32 25.34 32 24.68 32 24 C31.37432129 24.00523682 30.74864258 24.01047363 30.10400391 24.01586914 C27.27767943 24.03661618 24.45137095 24.04965286 21.625 24.0625 C20.64015625 24.07087891 19.6553125 24.07925781 18.640625 24.08789062 C17.22910156 24.09272461 17.22910156 24.09272461 15.7890625 24.09765625 C14.48509521 24.10551147 14.48509521 24.10551147 13.15478516 24.11352539 C11 24 11 24 9 23 C9 23.66 9 24.32 9 25 C6.03 25.495 6.03 25.495 3 26 C0.98419502 21.84240224 1 18.56615726 1 14 C0.34 13.01 -0.32 12.02 -1 11 C-1.99 11.495 -1.99 11.495 -3 12 C-4.50559539 10.03617993 -5.89131683 8.21736634 -7 6 C-6.66666667 4.66666667 -6.33333333 3.33333333 -6 2 C-6.33 1.34 -6.66 0.68 -7 0 C-3.87356321 -1.0421456 -2.96233466 -1.20012724 0 0 Z " fill="#3D3932" transform="translate(148,126)"/>
<path d="M0 0 C1.4540625 0.0309375 1.4540625 0.0309375 2.9375 0.0625 C10.07222161 12.40556839 13.23085315 24.89667558 13.4375 39.125 C13.46529541 40.25518555 13.46529541 40.25518555 13.49365234 41.40820312 C13.31178785 58.3109034 5.54114144 73.82199909 -1.09448242 88.97167969 C-2.26951406 91.6660137 -3.42640328 94.36761207 -4.58203125 97.0703125 C-5.12873222 98.29380905 -5.12873222 98.29380905 -5.68647766 99.54202271 C-8.33181822 105.7512096 -8.13604087 109.26885387 -5.6875 115.640625 C-5.15267066 116.86758643 -4.61089635 118.09154209 -4.0625 119.3125 C-3.78921875 119.93640625 -3.5159375 120.5603125 -3.234375 121.203125 C-2.21920641 123.5121359 -1.19064551 125.80620897 -0.0625 128.0625 C-6.89029745 131.3039796 -13.86422917 133.77269473 -21.0625 136.0625 C-20.7325 134.0825 -20.4025 132.1025 -20.0625 130.0625 C-21.0525 130.0625 -22.0425 130.0625 -23.0625 130.0625 C-23.0625 130.7225 -23.0625 131.3825 -23.0625 132.0625 C-24.7125 132.0625 -26.3625 132.0625 -28.0625 132.0625 C-26.17895575 126.16299393 -24.06318784 120.43960974 -21.62109375 114.75 C-21.29695496 113.98655273 -20.97281616 113.22310547 -20.63885498 112.43652344 C-19.94985416 110.81373923 -19.25952993 109.19151636 -18.56796265 107.56982422 C-16.75860781 103.32188613 -14.96585772 99.06694753 -13.171875 94.8125 C-12.8171965 93.97170898 -12.46251801 93.13091797 -12.09709167 92.26464844 C3.76018973 54.83742458 3.76018973 54.83742458 0.9375 15.0625 C0.2775 15.0625 -0.3825 15.0625 -1.0625 15.0625 C-1.0625 15.7225 -1.0625 16.3825 -1.0625 17.0625 C-1.7225 17.0625 -2.3825 17.0625 -3.0625 17.0625 C-3.371875 18.238125 -3.371875 18.238125 -3.6875 19.4375 C-5.0625 22.0625 -5.0625 22.0625 -8.1875 23.375 C-9.610625 23.7153125 -9.610625 23.7153125 -11.0625 24.0625 C-11.3925 26.0425 -11.7225 28.0225 -12.0625 30.0625 C-13.0525 30.0625 -14.0425 30.0625 -15.0625 30.0625 C-14.42210068 26.24272687 -13.30685165 22.92855825 -11.8125 19.359375 C-11.3690625 18.2971875 -10.925625 17.235 -10.46875 16.140625 C-9.77265625 14.49320313 -9.77265625 14.49320313 -9.0625 12.8125 C-8.5984375 11.69875 -8.134375 10.585 -7.65625 9.4375 C-3.72902965 0.07610265 -3.72902965 0.07610265 0 0 Z " fill="#3F3F3F" transform="translate(141.0625,-0.0625)"/>
<path d="M0 0 C0.99 0.33 1.98 0.66 3 1 C2.34 1 1.68 1 1 1 C1 1.99 1 2.98 1 4 C2.32 3.67 3.64 3.34 5 3 C4.67 4.32 4.34 5.64 4 7 C4.99 7 5.98 7 7 7 C7.4021875 7.8353125 7.4021875 7.8353125 7.8125 8.6875 C8.99530663 11.09305121 8.99530663 11.09305121 10.6875 13.5625 C11.120625 14.366875 11.55375 15.17125 12 16 C11.505 17.485 11.505 17.485 11 19 C10.34 19 9.68 19 9 19 C8.67 19.66 8.34 20.32 8 21 C6.68 17.7 5.36 14.4 4 11 C1.08556143 13.91443857 0.01278526 17.56820579 -1.484375 21.33984375 C-2.17962865 23.06057065 -2.87494319 24.78127296 -3.5703125 26.50195312 C-4.65604598 29.20628794 -5.73959766 31.91147757 -6.82128906 34.61743164 C-20.38271865 68.47422054 -20.38271865 68.47422054 -38.30078125 76.90625 C-47.34540852 80.57122198 -59.81464152 80.51136205 -69.0625 77.4375 C-80.95880831 72.25567245 -89.17287474 62.85833414 -94 51 C-96.98554402 41.7958617 -96.44938022 33.25078424 -94 24 C-93.67 24.66 -93.34 25.32 -93 26 C-92.01 26 -91.02 26 -90 26 C-90 27.32 -90 28.64 -90 30 C-89.34 29.34 -88.68 28.68 -88 28 C-87.90203125 29.19496094 -87.8040625 30.38992187 -87.703125 31.62109375 C-86.54946929 44.39860301 -84.77305648 53.92077106 -75 63 C-66.31775906 69.6166401 -57.78382691 70.963054 -47 70 C-43.3833231 69.09460727 -40.2670552 67.78309655 -37 66 C-36.35417969 65.649375 -35.70835938 65.29875 -35.04296875 64.9375 C-28.14843974 60.61152102 -24.32974764 53.21445323 -21 46 C-20.34 46 -19.68 46 -19 46 C-18.87625 45.278125 -18.7525 44.55625 -18.625 43.8125 C-18.0095069 41.04278106 -17.11555626 38.6029646 -16 36 C-15.34 36 -14.68 36 -14 36 C-13.9175 35.21625 -13.835 34.4325 -13.75 33.625 C-13 31 -13 31 -10.9375 29.6875 C-10.298125 29.460625 -9.65875 29.23375 -9 29 C-9.495 26.03 -9.495 26.03 -10 23 C-9.38640625 22.75507813 -8.7728125 22.51015625 -8.140625 22.2578125 C-5.57364433 20.74947715 -4.96142096 19.55743212 -3.75 16.875 C-3.41484375 16.15054688 -3.0796875 15.42609375 -2.734375 14.6796875 C-2.37085937 13.84824219 -2.37085937 13.84824219 -2 13 C-1.34 13 -0.68 13 0 13 C-0.14107747 11.54119891 -0.28802415 10.08296449 -0.4375 8.625 C-0.51871094 7.81289062 -0.59992188 7.00078125 -0.68359375 6.1640625 C-0.89090114 3.95727195 -0.89090114 3.95727195 -2 2 C-1.34 2 -0.68 2 0 2 C0 1.34 0 0.68 0 0 Z " fill="#363433" transform="translate(109,146)"/>
<path d="M0 0 C6.43758156 4.24295148 10.70940718 9.60043517 13 17 C14.33792701 25.96292694 12.72384535 33.93557033 7.33984375 41.2578125 C1.36687866 47.90534244 -6.07452075 50.97059062 -14.9375 51.625 C-22.66475541 51.26759903 -30.33426983 47.268375 -35.5625 41.625 C-41.35413217 33.74906363 -42.02347574 25.63866709 -41 16 C-40.0779839 12.96916758 -38.8145336 10.58319019 -37 8 C-36.4225 7.113125 -35.845 6.22625 -35.25 5.3125 C-25.2692796 -4.94546263 -12.44391219 -6.7638684 0 0 Z M-30.4375 13.125 C-33.29728899 18.38701174 -33.77678095 23.10868382 -33 29 C-30.93531266 34.02892725 -27.69900719 38.22331394 -23 41 C-16.99270488 43.21382085 -11.94489457 43.43828657 -6 41 C-0.71925328 38.15652099 2.56389832 34.70992933 4.75 29.0625 C5.67007243 21.47190244 4.34533821 16.28958489 0 10 C-4.0667893 5.79232885 -8.23941549 4.66557173 -14 4.375 C-21.48103001 4.71504682 -25.8812429 7.28364474 -30.4375 13.125 Z " fill="#3A362F" transform="translate(184,160)"/>
<path d="M0 0 C6.95201104 4.02089287 11.4548305 9.36449149 14 17 C14.82803655 27.56085956 13.60804919 34.48180712 7.875 43.25 C1.50256931 49.34536849 -6.49559918 52.40964106 -15.24609375 52.26953125 C-23.13082805 51.49783385 -29.02734925 47.99220518 -34.3046875 42.19140625 C-39.8489912 35.0246911 -41.13388141 27.95415632 -40 19 C-38.26509266 11.79346183 -34.91260458 6.48213573 -29 2 C-19.45285602 -3.75636622 -10.24861419 -4.82394806 0 0 Z M-28 12 C-31.35555823 17.01969687 -32.78383634 21.95326254 -32 28 C-29.96320905 33.90669375 -27.56586297 38.40346304 -22.1875 41.75 C-15.74625211 44.27597957 -10.87478215 44.30044174 -4.37109375 42.15234375 C0.67878798 39.69811787 3.86822675 35.09897115 6 30 C6.98757396 23.24775017 5.98628686 17.57306124 2 12 C-3.60205359 6.67804909 -8.26746775 5.4082533 -15.88671875 5.56640625 C-20.99040746 6.27720857 -24.43460263 8.32153506 -28 12 Z " fill="#3D3B38" transform="translate(68,159)"/>
<path d="M0 0 C3.96637939 2.64425293 4.88704272 5.92677482 6.58203125 10.19921875 C6.91869308 11.0264595 7.25535492 11.85370026 7.60221863 12.70600891 C8.68110539 15.36304332 9.74691621 18.0251065 10.8125 20.6875 C11.51803139 22.43068233 12.22440302 24.17352483 12.93164062 25.91601562 C14.31496712 29.32700892 15.68599471 32.74258807 17.04931641 36.16162109 C18.28859531 39.2607788 19.56383598 42.33936604 20.88427734 45.40478516 C21.17106857 46.08273636 21.4578598 46.76068756 21.75334167 47.45918274 C22.51683953 49.25925061 23.29435939 51.05335333 24.07299805 52.84692383 C25.58479911 57.98911787 24.21819372 61.95466217 22.15234375 66.7421875 C21.79462891 67.58007812 21.43691406 68.41796875 21.06835938 69.28125 C20.69517578 70.1371875 20.32199219 70.993125 19.9375 71.875 C19.56044922 72.75414063 19.18339844 73.63328125 18.79492188 74.5390625 C17.86913928 76.69531564 16.93738089 78.84876979 16 81 C15.34 81 14.68 81 14 81 C4.15191877 58.95724727 4.15191877 58.95724727 0.5 48.5625 C0.15461182 47.58228882 0.15461182 47.58228882 -0.19775391 46.58227539 C-2.8425348 38.8408438 -4.3667012 31.94105227 -4.3125 23.75 C-4.31048584 22.92314697 -4.30847168 22.09629395 -4.30639648 21.24438477 C-4.187379 13.92872924 -3.3125783 6.6251566 0 0 Z " fill="#C9C9C9" transform="translate(83,15)"/>
<path d="M0 0 C0.66 0.33 1.32 0.66 2 1 C1.773125 1.763125 1.54625 2.52625 1.3125 3.3125 C1.209375 4.199375 1.10625 5.08625 1 6 C2.33378575 7.8354799 2.33378575 7.8354799 4 9 C4.33 8.67 4.66 8.34 5 8 C7.3799663 9.86258232 7.97052972 10.86443669 8.625 13.875 C8.74875 14.90625 8.8725 15.9375 9 17 C9.64878596 20.61837068 9.64878596 20.61837068 11 24 C12.65 24 14.3 24 16 24 C16 23.34 16 22.68 16 22 C19.45826342 21.94210994 22.91640293 21.90644179 26.375 21.875 C27.35984375 21.85824219 28.3446875 21.84148437 29.359375 21.82421875 C30.30039063 21.81777344 31.24140625 21.81132812 32.2109375 21.8046875 C33.51490479 21.78897705 33.51490479 21.78897705 34.84521484 21.77294922 C37 22 37 22 39 24 C37.94941406 23.96519531 36.89882812 23.93039063 35.81640625 23.89453125 C25.60695903 23.58607499 25.60695903 23.58607499 15.89453125 26.44140625 C13.05577303 27.27840094 11.74006324 27.19021497 9 26 C7.32043649 23.52053319 6.27589157 20.84234337 5.1875 18.0625 C4.72053711 16.9497168 4.72053711 16.9497168 4.24414062 15.81445312 C2 10.37426168 2 10.37426168 2 8 C1.31373535 8.30292969 0.6274707 8.60585937 -0.07958984 8.91796875 C-3.17640607 10.28243616 -6.2756567 11.64128315 -9.375 13 C-10.45523438 13.47695312 -11.53546875 13.95390625 -12.6484375 14.4453125 C-13.6796875 14.89648438 -14.7109375 15.34765625 -15.7734375 15.8125 C-16.72653809 16.23144531 -17.67963867 16.65039062 -18.66162109 17.08203125 C-21 18 -21 18 -23 18 C-22.6918335 18.70084717 -22.38366699 19.40169434 -22.06616211 20.1237793 C-20.67615411 23.30586807 -19.30668546 26.49639976 -17.9375 29.6875 C-17.45216797 30.79029297 -16.96683594 31.89308594 -16.46679688 33.02929688 C-16.01240234 34.09599609 -15.55800781 35.16269531 -15.08984375 36.26171875 C-14.66566162 37.24100342 -14.24147949 38.22028809 -13.80444336 39.22924805 C-12.91884929 42.27950816 -13.11260878 43.98671763 -14 47 C-17.01031744 47.93423645 -17.86650268 48.04449911 -21 47 C-22.70533217 43.67908998 -23 41.81507216 -23 38 C-22.34 37.67 -21.68 37.34 -21 37 C-22.15173355 34.53199953 -23.04783565 32.95216435 -25 31 C-25.125 28.375 -25.125 28.375 -25 26 C-25.99 26 -26.98 26 -28 26 C-28 25.01 -28 24.02 -28 23 C-28.99 23 -29.98 23 -31 23 C-31.33 21.68 -31.66 20.36 -32 19 C-32 20.32 -32 21.64 -32 23 C-32 26 -32 29 -32 32 C-32.99 32.495 -32.99 32.495 -34 33 C-34.45375 34.134375 -34.9075 35.26875 -35.375 36.4375 C-37 40 -37 40 -39.1875 41.4375 C-39.785625 41.623125 -40.38375 41.80875 -41 42 C-40.67 44.31 -40.34 46.62 -40 49 C-40.804375 49.2475 -41.60875 49.495 -42.4375 49.75 C-45.171081 50.72238859 -45.171081 50.72238859 -45.8125 53.125 C-45.874375 53.74375 -45.93625 54.3625 -46 55 C-46.66 55 -47.32 55 -48 55 C-48.12375 55.721875 -48.2475 56.44375 -48.375 57.1875 C-48.9904931 59.95721894 -49.88444374 62.3970354 -51 65 C-51.66 64.67 -52.32 64.34 -53 64 C-52.49025635 62.78417236 -51.9805127 61.56834473 -51.45532227 60.31567383 C-49.56279791 55.7982475 -47.67636471 51.27829873 -45.79174805 46.75756836 C-44.97569674 44.80244882 -44.15800187 42.84801444 -43.33862305 40.89428711 C-42.16020413 38.08366151 -40.98774506 35.27061359 -39.81640625 32.45703125 C-39.44971329 31.58601273 -39.08302032 30.7149942 -38.70521545 29.81758118 C-38.3649382 28.997108 -38.02466095 28.17663483 -37.67407227 27.33129883 C-37.22439842 26.25541252 -37.22439842 26.25541252 -36.76564026 25.15779114 C-35.79065328 22.57327676 -35.79065328 22.57327676 -35 18 C-41.27 15.36 -47.54 12.72 -54 10 C-54 9.34 -54 8.68 -54 8 C-54.66 7.67 -55.32 7.34 -56 7 C-52.38671875 2.3125 -52.38671875 2.3125 -51 1 C-50.01 1 -49.02 1 -48 1 C-47.67 1.99 -47.34 2.98 -47 4 C-45.29635433 5.05916114 -45.29635433 5.05916114 -43.18359375 5.82421875 C-42.41982422 6.13037109 -41.65605469 6.43652344 -40.86914062 6.75195312 C-40.06669922 7.06068359 -39.26425781 7.36941406 -38.4375 7.6875 C-37.22803711 8.16799805 -37.22803711 8.16799805 -35.99414062 8.65820312 C-34.00001775 9.44877255 -32.00049052 10.225685 -30 11 C-29.34 9.02 -28.68 7.04 -28 5 C-26.35 5 -24.7 5 -23 5 C-23 4.34 -23 3.68 -23 3 C-21.68 2.67 -20.36 2.34 -19 2 C-19.33 3.98 -19.66 5.96 -20 8 C-13.77765072 5.81345483 -7.71209373 3.52360436 -1.77734375 0.63671875 C-1.19082031 0.42660156 -0.60429687 0.21648437 0 0 Z " fill="#353431" transform="translate(141,127)"/>
<path d="M0 0 C1.32 0 2.64 0 4 0 C4.33 2.97 4.66 5.94 5 9 C5.66 9 6.32 9 7 9 C7.23074219 9.71027344 7.46148437 10.42054688 7.69921875 11.15234375 C8.18841797 12.53099609 8.18841797 12.53099609 8.6875 13.9375 C9.00074219 14.85402344 9.31398437 15.77054688 9.63671875 16.71484375 C10.81257756 19.26532213 10.81257756 19.26532213 13.64453125 19.81640625 C14.81048828 19.90728516 14.81048828 19.90728516 16 20 C16 17.69 16 15.38 16 13 C18.1464753 13.11344376 20.29220592 13.24106345 22.4375 13.375 C24.22994141 13.47941406 24.22994141 13.47941406 26.05859375 13.5859375 C27.51458984 13.79089844 27.51458984 13.79089844 29 14 C29.495 14.99 29.495 14.99 30 16 C28.39125 16.2475 28.39125 16.2475 26.75 16.5 C24.31485645 17.18595593 23.26975707 17.62181966 21.78515625 19.703125 C21.12699555 21.08817001 20.50132313 22.48904507 19.90625 23.90234375 C18.63523934 26.84429515 16.78731217 29.34984748 15 32 C13.8192754 35.54217381 13.64930877 38.93049943 13.4375 42.625 C13.39431641 43.31851563 13.35113281 44.01203125 13.30664062 44.7265625 C12.88772481 49.17758323 12.88772481 49.17758323 14.0625 53.3125 C15.05546133 56.15898913 15.02351015 57.2365226 14 60 C13.34 60 12.68 60 12 60 C11.71125 59.0925 11.4225 58.185 11.125 57.25 C9.27861666 51.72567558 9.27861666 51.72567558 5 48 C3.71811591 45.3291142 2.58024029 42.70694893 1.49609375 39.95703125 C1.17214127 39.1552092 0.84818878 38.35338715 0.51441956 37.52726746 C-0.16985224 35.82846293 -0.8495936 34.12782762 -1.52514648 32.42553711 C-2.5530771 29.83623578 -3.59454758 27.2527297 -4.63867188 24.66992188 C-5.30289214 23.01594958 -5.96632871 21.3616623 -6.62890625 19.70703125 C-6.93727921 18.94010452 -7.24565216 18.1731778 -7.56336975 17.38301086 C-9.31025302 12.97015244 -10.77535847 8.58606092 -12 4 C-10.7625 3.67 -9.525 3.34 -8.25 3 C-7.20585938 2.7215625 -7.20585938 2.7215625 -6.140625 2.4375 C-4 2 -4 2 0 2 C0 1.34 0 0.68 0 0 Z " fill="#F4B33F" transform="translate(130,141)"/>
<path d="M0 0 C-0.33 1.32 -0.66 2.64 -1 4 C-0.01 4 0.98 4 2 4 C1.92910156 5.13695313 1.85820312 6.27390625 1.78515625 7.4453125 C1.78626159 12.46132693 3.41044971 16.35281343 5.4375 20.875 C5.92573242 22.01195312 5.92573242 22.01195312 6.42382812 23.171875 C7.56172757 25.80898629 8.7153174 28.43063479 10 31 C3.17220255 34.2414796 -3.80172917 36.71019473 -11 39 C-10.505 36.03 -10.505 36.03 -10 33 C-10.99 33 -11.98 33 -13 33 C-13 33.66 -13 34.32 -13 35 C-14.65 35 -16.3 35 -18 35 C-15.67235968 27.70315387 -12.92534667 20.63925776 -10 13.5625 C-9.56171875 12.47517578 -9.1234375 11.38785156 -8.671875 10.26757812 C-8.24390625 9.23181641 -7.8159375 8.19605469 -7.375 7.12890625 C-6.79878906 5.72233765 -6.79878906 5.72233765 -6.2109375 4.28735352 C-4.72242297 1.47568161 -3.31697931 0 0 0 Z " fill="#393939" transform="translate(131,97)"/>
<path d="M0 0 C2.31 0 4.62 0 7 0 C6.2575 0.53625 5.515 1.0725 4.75 1.625 C0.47386551 5.31802524 -2.5638825 9.49236928 -3.2734375 15.19921875 C-3.54459902 21.84267593 -2.2479269 25.87532075 2 31 C5.40134378 34.64429691 10.16698154 35.55412021 15 36 C20.1320664 35.47841067 24.50150681 33.47417125 29 31 C29 32.32 29 33.64 29 35 C28.34 35 27.68 35 27 35 C27 35.66 27 36.32 27 37 C26.525625 37.45375 26.05125 37.9075 25.5625 38.375 C23.77906263 40.22977487 23.4308007 41.50135592 23 44 C14.23370587 46.41073089 7.66235695 45.13992773 -0.2890625 40.765625 C-5.56581615 37.32889208 -8.77014343 33.84667926 -10.375 27.6875 C-11.43214705 21.37697932 -12.48317627 13.68307706 -9 8 C-8.01 7.67 -7.02 7.34 -6 7 C-4.97980427 6.0206121 -3.97850195 5.02104551 -3 4 C-2.34 3.67 -1.68 3.34 -1 3 C-0.67 2.01 -0.34 1.02 0 0 Z " fill="#393837" transform="translate(155,166)"/>
<path d="M0 0 C8.63192793 6.16566281 12.86439643 15.42831462 15.6875 25.4375 C17.01705222 36.33982821 15.08929441 46.76107055 9 56 C8.01 55.01 7.02 54.02 6 53 C6.33 52.01 6.66 51.02 7 50 C7.99 50.33 8.98 50.66 10 51 C10 50.01 10 49.02 10 48 C8.02 48.495 8.02 48.495 6 49 C6.45822468 45.53058454 6.89131683 42.32604951 8 39 C8.36068983 31.93472275 7.93355219 25.00164139 7 18 C6.34 18 5.68 18 5 18 C4.67 15.69 4.34 13.38 4 11 C3.01 10.67 2.02 10.34 1 10 C1.020625 9.0925 1.04125 8.185 1.0625 7.25 C1.0110245 4.57327412 0.7784983 2.53011948 0 0 Z " fill="#404040" transform="translate(196,151)"/>
<path d="M0 0 C0.99 0.33 1.98 0.66 3 1 C2.34 1 1.68 1 1 1 C1 1.99 1 2.98 1 4 C2.32 3.67 3.64 3.34 5 3 C4.67 4.32 4.34 5.64 4 7 C4.99 7 5.98 7 7 7 C7.268125 7.556875 7.53625 8.11375 7.8125 8.6875 C8.99530663 11.09305121 8.99530663 11.09305121 10.6875 13.5625 C11.120625 14.366875 11.55375 15.17125 12 16 C11.67 16.99 11.34 17.98 11 19 C10.34 19 9.68 19 9 19 C8.67 19.66 8.34 20.32 8 21 C6.68 17.7 5.36 14.4 4 11 C1.24062843 13.75937157 0.17892507 17.07199367 -1.2578125 20.6328125 C-1.56572723 21.38464813 -1.87364197 22.13648376 -2.19088745 22.91110229 C-3.17365972 25.31383311 -4.14939911 27.7193496 -5.125 30.125 C-5.78990352 31.75409451 -6.45526252 33.38300319 -7.12109375 35.01171875 C-8.75268973 39.00567515 -10.37798383 43.00214402 -12 47 C-13.32 46.34 -14.64 45.68 -16 45 C-16 42.03 -16 39.06 -16 36 C-15.34 36 -14.68 36 -14 36 C-13.87625 34.824375 -13.87625 34.824375 -13.75 33.625 C-13 31 -13 31 -10.9375 29.6875 C-10.298125 29.460625 -9.65875 29.23375 -9 29 C-9.33 27.02 -9.66 25.04 -10 23 C-9.07960938 22.63261719 -9.07960938 22.63261719 -8.140625 22.2578125 C-5.57364433 20.74947715 -4.96142096 19.55743212 -3.75 16.875 C-3.41484375 16.15054688 -3.0796875 15.42609375 -2.734375 14.6796875 C-2.49203125 14.12539062 -2.2496875 13.57109375 -2 13 C-1.34 13 -0.68 13 0 13 C-0.14107747 11.54119891 -0.28802415 10.08296449 -0.4375 8.625 C-0.51871094 7.81289062 -0.59992188 7.00078125 -0.68359375 6.1640625 C-0.89090114 3.95727195 -0.89090114 3.95727195 -2 2 C-1.34 2 -0.68 2 0 2 C0 1.34 0 0.68 0 0 Z " fill="#424342" transform="translate(109,146)"/>
<path d="M0 0 C2.11721886 3.48718401 2.11721886 3.48718401 1.56689453 5.89477539 C1.37981934 6.58949951 1.19274414 7.28422363 1 8 C0.90468176 10.82310196 0.86054 13.61538978 0.875 16.4375 C0.87113281 17.18837891 0.86726563 17.93925781 0.86328125 18.71289062 C0.85455491 24.42799363 0.85455491 24.42799363 2 30 C4.3430809 31.12085312 4.3430809 31.12085312 7 32 C10.38496591 34.72677809 11.51999859 36.67998734 12 41 C13.32 41 14.64 41 16 41 C16.33 42.32 16.66 43.64 17 45 C13.76303933 45.56646812 11.71447149 45.48452664 8.9609375 43.6171875 C3.22635499 38.65580713 -1.05016306 34.75700165 -2 27 C-2.50273437 25.63294922 -2.50273437 25.63294922 -3.015625 24.23828125 C-4.09431031 20.68974901 -4.20045965 17.82252305 -4.125 14.125 C-4.10695313 12.97257813 -4.08890625 11.82015625 -4.0703125 10.6328125 C-4.04710938 9.76398438 -4.02390625 8.89515625 -4 8 C-3.34 8 -2.68 8 -2 8 C-1.855625 6.865625 -1.71125 5.73125 -1.5625 4.5625 C-1 1 -1 1 0 0 Z " fill="#EBAF41" transform="translate(27,168)"/>
<path d="M0 0 C6.22987798 0.50512524 11.45474233 3.32604123 17 6 C15.39249341 12.368788 13.16373902 18.48760503 10.6875 24.5625 C10.41607178 25.27728516 10.14464355 25.99207031 9.86499023 26.72851562 C9.01171875 28.75390625 9.01171875 28.75390625 7 32 C3.95703125 32.90234375 3.95703125 32.90234375 1 33 C-0.485 33.495 -0.485 33.495 -2 34 C-2 33.34 -2 32.68 -2 32 C-2.66 32 -3.32 32 -4 32 C-3.67 31.34 -3.34 30.68 -3 30 C-2.01 30.33 -1.02 30.66 0 31 C3.61181604 27.72209215 4.94694555 23.94456632 6.75 19.5 C7.07871094 18.72785156 7.40742187 17.95570313 7.74609375 17.16015625 C8.20435547 16.04447266 8.20435547 16.04447266 8.671875 14.90625 C8.9512793 14.22884766 9.23068359 13.55144531 9.51855469 12.85351562 C10.23343237 10.79267293 10.23343237 10.79267293 9 8 C7.68 8 6.36 8 5 8 C4.01 9.98 3.02 11.96 2 14 C1.67 14 1.34 14 1 14 C1 12.35 1 10.7 1 9 C1.66 9 2.32 9 3 9 C2.01 6.03 1.02 3.06 0 0 Z " fill="#ECB960" transform="translate(90,139)"/>
<path d="M0 0 C4.13736264 6.20604396 4.13736264 6.20604396 3.8046875 10.55078125 C2.7108353 15.23947782 0.85757399 19.47109972 -1.0625 23.875 C-1.43955078 24.75414063 -1.81660156 25.63328125 -2.20507812 26.5390625 C-3.13086072 28.69531564 -4.06261911 30.84876979 -5 33 C-5.66 33 -6.32 33 -7 33 C-8.99936211 29.74923858 -10.35715379 26.77795772 -11 23 C-9.96395441 19.67420658 -8.49187743 16.98607817 -6.73828125 13.98046875 C-4.65002822 10.39993603 -3.22320624 6.72974815 -1.76171875 2.86328125 C-1 1 -1 1 0 0 Z " fill="#B1B1B1" transform="translate(104,63)"/>
<path d="M0 0 C0.99 0 1.98 0 3 0 C3 0.66 3 1.32 3 2 C5.31 2.33 7.62 2.66 10 3 C10 2.34 10 1.68 10 1 C10.99 1.33 11.98 1.66 13 2 C13.33 2.99 13.66 3.98 14 5 C16.43276386 6.18519265 18.28017286 7 21 7 C22.03849343 12.71171389 22 18.20715794 22 24 C21.34 24.33 20.68 24.66 20 25 C19.319375 26.7015625 19.319375 26.7015625 18.625 28.4375 C17 32 17 32 14.8125 33.4375 C14.214375 33.623125 13.61625 33.80875 13 34 C13.33 36.31 13.66 38.62 14 41 C13.195625 41.2475 12.39125 41.495 11.5625 41.75 C8.828919 42.72238859 8.828919 42.72238859 8.1875 45.125 C8.125625 45.74375 8.06375 46.3625 8 47 C7.34 47 6.68 47 6 47 C5.87625 47.721875 5.7525 48.44375 5.625 49.1875 C5.0095069 51.95721894 4.11555626 54.3970354 3 57 C2.34 56.67 1.68 56.34 1 56 C1.50974365 54.78417236 2.0194873 53.56834473 2.54467773 52.31567383 C4.43720209 47.7982475 6.32363529 43.27829873 8.20825195 38.75756836 C9.02430326 36.80244882 9.84199813 34.84801444 10.66137695 32.89428711 C11.83979587 30.08366151 13.01225494 27.27061359 14.18359375 24.45703125 C14.55028671 23.58601273 14.91697968 22.7149942 15.29478455 21.81758118 C15.80520042 20.58687141 15.80520042 20.58687141 16.32592773 19.33129883 C16.77560158 18.25541252 16.77560158 18.25541252 17.23435974 17.15779114 C18.20934672 14.57327676 18.20934672 14.57327676 19 10 C12.73 7.36 6.46 4.72 0 2 C0 1.34 0 0.68 0 0 Z " fill="#3E341F" transform="translate(87,135)"/>
<path d="M0 0 C3 1 3 1 4.02734375 2.890625 C4.32769531 3.66921875 4.62804687 4.4478125 4.9375 5.25 C7.50956026 11.88613815 10.79049549 15.29338376 17.25 18.3125 C18.86648437 19.08013672 18.86648437 19.08013672 20.515625 19.86328125 C21.33546875 20.23839844 22.1553125 20.61351562 23 21 C23 21.33 23 21.66 23 22 C20.03 22 17.06 22 14 22 C14 22.33 14 22.66 14 23 C15.65 23.33 17.3 23.66 19 24 C19 24.66 19 25.32 19 26 C25.27 26 31.54 26 38 26 C38 25.34 38 24.68 38 24 C39.98 24 41.96 24 44 24 C39.80314901 28.19685099 34.36828704 28.31600948 28.6875 28.375 C22.17417919 28.2730302 17.50191852 27.47660599 12 24 C11.30390625 23.57589844 10.6078125 23.15179688 9.890625 22.71484375 C1.98408041 17.37941234 -2.08885285 9.89517185 -5 1 C-2 2 -2 2 0 5 C0.39387788 7.32387947 0.73486085 9.65793749 1 12 C1.66 11.67 2.32 11.34 3 11 C2.67 8.36 2.34 5.72 2 3 C1.34 3 0.68 3 0 3 C0 2.01 0 1.02 0 0 Z " fill="#E3AD4F" transform="translate(141,189)"/>
<path d="M0 0 C-0.33 1.32 -0.66 2.64 -1 4 C1.475 4.495 1.475 4.495 4 5 C4 5.33 4 5.66 4 6 C3.04287109 6.09087891 3.04287109 6.09087891 2.06640625 6.18359375 C1.24011719 6.26738281 0.41382813 6.35117188 -0.4375 6.4375 C-1.67306641 6.55931641 -1.67306641 6.55931641 -2.93359375 6.68359375 C-4.98662025 6.78930815 -4.98662025 6.78930815 -6 8 C-7.51469448 8.23192865 -9.03754562 8.41215238 -10.5625 8.5625 C-11.38878906 8.64628906 -12.21507812 8.73007813 -13.06640625 8.81640625 C-13.70449219 8.87699219 -14.34257812 8.93757812 -15 9 C-15 9.99 -15 10.98 -15 12 C-16.65 12.33 -18.3 12.66 -20 13 C-20.33 13.99 -20.66 14.98 -21 16 C-21.99 16.33 -22.98 16.66 -24 17 C-25.50524531 20.54377754 -25.09752721 24.46706136 -25.0625 28.25 C-25.05347656 29.51328125 -25.04445312 30.7765625 -25.03515625 32.078125 C-25.02355469 33.04234375 -25.01195312 34.0065625 -25 35 C-28.39842449 29.90236326 -27.5408514 23.94936545 -27 18 C-26.08783994 14.96260103 -24.81612599 12.58545714 -23 10 C-22.4225 9.113125 -21.845 8.22625 -21.25 7.3125 C-14.78896516 0.67199196 -8.96579821 -1.32282269 0 0 Z " fill="#35322F" transform="translate(170,158)"/>
<path d="M0 0 C1.06734375 -0.01836914 1.06734375 -0.01836914 2.15625 -0.03710938 C5.934487 -0.0476828 8.79693658 0.07714832 12 2.1875 C12 4.1875 12 6.1875 12 8.1875 C4.74 7.5275 -2.52 6.8675 -10 6.1875 C-10 5.1975 -10 4.2075 -10 3.1875 C-11.32 4.5075 -12.64 5.8275 -14 7.1875 C-13.34 7.1875 -12.68 7.1875 -12 7.1875 C-12 7.8475 -12 8.5075 -12 9.1875 C-14.64 8.8575 -17.28 8.5275 -20 8.1875 C-20.33 8.8475 -20.66 9.5075 -21 10.1875 C-21.99 9.8575 -22.98 9.5275 -24 9.1875 C-23 6.1875 -23 6.1875 -20.63671875 4.8359375 C-19.66347656 4.41570312 -18.69023438 3.99546875 -17.6875 3.5625 C-16.72199219 3.13710937 -15.75648437 2.71171875 -14.76171875 2.2734375 C-9.76267182 0.30775851 -5.35893884 0.00485411 0 0 Z " fill="#3F4040" transform="translate(55,141.8125)"/>
<path d="M0 0 C8.60793032 -0.55535034 16.34182864 1.18707534 23 7 C23.75 9.6875 23.75 9.6875 24 12 C23.01 12 22.02 12 21 12 C21.66 13.32 22.32 14.64 23 16 C22.01 16.33 21.02 16.66 20 17 C19.2575 16.21625 18.515 15.4325 17.75 14.625 C13.67184242 10.73221322 10.84648351 9.77474882 5.25 9.375 C4.26515625 9.30023438 3.2803125 9.22546875 2.265625 9.1484375 C1.51796875 9.09945312 0.7703125 9.05046875 0 9 C0.47050781 8.55011719 0.94101563 8.10023438 1.42578125 7.63671875 C3.11557939 5.87983185 4.00825659 4.21235068 5 2 C3.02 2 1.04 2 -1 2 C-0.67 1.34 -0.34 0.68 0 0 Z " fill="#493B1E" transform="translate(165,156)"/>
<path d="M0 0 C1.17755859 -0.02126953 1.17755859 -0.02126953 2.37890625 -0.04296875 C4.4375 0.1875 4.4375 0.1875 6.4375 2.1875 C5.79941406 2.29707031 5.16132812 2.40664062 4.50390625 2.51953125 C3.67761719 2.67808594 2.85132812 2.83664063 2 3 C1.17628906 3.15082031 0.35257813 3.30164063 -0.49609375 3.45703125 C-1.17800781 3.69808594 -1.85992187 3.93914062 -2.5625 4.1875 C-2.8925 5.1775 -3.2225 6.1675 -3.5625 7.1875 C-0.9225 7.1875 1.7175 7.1875 4.4375 7.1875 C4.4375 7.5175 4.4375 7.8475 4.4375 8.1875 C-3.9775 8.6825 -3.9775 8.6825 -12.5625 9.1875 C-12.8925 9.8475 -13.2225 10.5075 -13.5625 11.1875 C-15.625 12.3125 -15.625 12.3125 -17.5625 13.1875 C-17.5625 14.1775 -17.5625 15.1675 -17.5625 16.1875 C-18.5525 16.1875 -19.5425 16.1875 -20.5625 16.1875 C-20.5625 16.8475 -20.5625 17.5075 -20.5625 18.1875 C-21.5525 18.1875 -22.5425 18.1875 -23.5625 18.1875 C-24.2225 22.1475 -24.8825 26.1075 -25.5625 30.1875 C-25.8925 30.1875 -26.2225 30.1875 -26.5625 30.1875 C-27.1211904 22.6451796 -25.63610886 16.27267633 -21.01953125 10.13671875 C-15.48044419 4.217374 -8.2227581 0.06773277 0 0 Z " fill="#3E3626" transform="translate(54.5625,155.8125)"/>
<path d="M0 0 C0 1.32 0 2.64 0 4 C0.66 4.33 1.32 4.66 2 5 C2 8.63 2 12.26 2 16 C1.34 16.33 0.68 16.66 0 17 C0 18.65 0 20.3 0 22 C-3.65079826 23.61064629 -7.0507432 24.44894091 -11 25 C-10.45859375 24.19949219 -10.45859375 24.19949219 -9.90625 23.3828125 C-5.52704037 16.35174815 -5.21202941 10.92481616 -6.5 2.875 C-6.665 2.25625 -6.83 1.6375 -7 1 C-4.50935112 0.31292445 -2.62113708 0 0 0 Z " fill="#3E3E3F" transform="translate(79,173)"/>
<path d="M0 0 C1.3125 1.5625 1.3125 1.5625 2.3125 3.5625 C2.9725 3.8925 3.6325 4.2225 4.3125 4.5625 C3.9825 5.8825 3.6525 7.2025 3.3125 8.5625 C4.9625 9.8825 6.6125 11.2025 8.3125 12.5625 C6.3325 13.5525 6.3325 13.5525 4.3125 14.5625 C3.508125 13.4178125 3.508125 13.4178125 2.6875 12.25 C-2.23076208 6.68459817 -7.41150022 6.15726799 -14.4921875 5.67578125 C-15.21664062 5.63839844 -15.94109375 5.60101563 -16.6875 5.5625 C-16.25 2.6875 -16.25 2.6875 -14.6875 -0.4375 C-9.87704254 -2.55560749 -4.2619246 -3.63052836 0 0 Z " fill="#464441" transform="translate(66.6875,159.4375)"/>
<path d="M0 0 C9.64239584 -0.43554109 18.18971512 -0.62455567 27 4 C27.66 4.66 28.32 5.32 29 6 C25.33708062 8.47785723 22.3890815 9.48964169 18 10 C18 9.34 18 8.68 18 8 C17.14535156 7.87882813 16.29070312 7.75765625 15.41015625 7.6328125 C14.30542969 7.46523437 13.20070312 7.29765625 12.0625 7.125 C10.40927734 6.88136719 10.40927734 6.88136719 8.72265625 6.6328125 C7.82417969 6.42398438 6.92570313 6.21515625 6 6 C5.67 5.34 5.34 4.68 5 4 C5.66 4 6.32 4 7 4 C7 3.01 7 2.02 7 1 C4.69 1 2.38 1 0 1 C0 0.67 0 0.34 0 0 Z " fill="#434444" transform="translate(162,142)"/>
<path d="M0 0 C1.03275341 2.26607052 2.05133551 4.53681939 3.0625 6.8125 C3.35705078 7.45509766 3.65160156 8.09769531 3.95507812 8.75976562 C6.11328125 13.66015625 6.11328125 13.66015625 5 17 C4.34 16.67 3.68 16.34 3 16 C2.67 16.99 2.34 17.98 2 19 C1.76925781 18.28972656 1.53851563 17.57945312 1.30078125 16.84765625 C0.81158203 15.46900391 0.81158203 15.46900391 0.3125 14.0625 C-0.00074219 13.14597656 -0.31398437 12.22945312 -0.63671875 11.28515625 C-1.81257756 8.73467787 -1.81257756 8.73467787 -4.64453125 8.18359375 C-5.42183594 8.12300781 -6.19914063 8.06242188 -7 8 C-7 10.31 -7 12.62 -7 15 C-7.99 15.495 -7.99 15.495 -9 16 C-9 12.7 -9 9.4 -9 6 C-10.32 6 -11.64 6 -13 6 C-13 6.66 -13 7.32 -13 8 C-15.64 8.33 -18.28 8.66 -21 9 C-18.98578626 6.98578626 -17.74173117 6.33459733 -15.15625 5.2734375 C-14.40472656 4.9640625 -13.65320313 4.6546875 -12.87890625 4.3359375 C-12.09386719 4.01882812 -11.30882812 3.70171875 -10.5 3.375 C-9.71496094 3.05015625 -8.92992187 2.7253125 -8.12109375 2.390625 C-2.26506696 0 -2.26506696 0 0 0 Z " fill="#E0AB4D" transform="translate(143,135)"/>
<path d="M0 0 C0.99 0.33 1.98 0.66 3 1 C2.04795729 3.46094058 1.08871944 5.91863604 0.125 8.375 C-0.14441406 9.07367188 -0.41382813 9.77234375 -0.69140625 10.4921875 C-2.7734375 15.7734375 -2.7734375 15.7734375 -5 18 C-8.2397163 17.69863104 -11.08753026 16.97139675 -14.1796875 15.9609375 C-18.41974017 14.89442118 -22.1002972 14.77182775 -26.4375 14.875 C-27.53481445 14.88853516 -27.53481445 14.88853516 -28.65429688 14.90234375 C-30.43634298 14.92563847 -32.21821759 14.9614981 -34 15 C-34 14.34 -34 13.68 -34 13 C-30.70835171 12.97104775 -27.41673601 12.9532177 -24.125 12.9375 C-23.18785156 12.92912109 -22.25070313 12.92074219 -21.28515625 12.91210938 C-19.94130859 12.90727539 -19.94130859 12.90727539 -18.5703125 12.90234375 C-17.32918701 12.89448853 -17.32918701 12.89448853 -16.06298828 12.88647461 C-14 13 -14 13 -12 14 C-12 13.34 -12 12.68 -12 12 C-12.66 11.67 -13.32 11.34 -14 11 C-14 10.01 -14 9.02 -14 8 C-11.03 8.66 -8.06 9.32 -5 10 C-4.731875 9.195625 -4.46375 8.39125 -4.1875 7.5625 C-3.795625 6.716875 -3.40375 5.87125 -3 5 C-2.01 4.67 -1.02 4.34 0 4 C0 2.68 0 1.36 0 0 Z " fill="#40311B" transform="translate(79,136)"/>
<path d="M0 0 C2.9375 0.375 2.9375 0.375 6 1 C6.33 1.66 6.66 2.32 7 3 C0.02904724 11.8313678 -6.74751681 17.21389156 -18 19 C-17.67 17.68 -17.34 16.36 -17 15 C-15.741875 14.731875 -14.48375 14.46375 -13.1875 14.1875 C-8.92206374 13.12885296 -8.92206374 13.12885296 -6 10 C-5.690625 8.96875 -5.38125 7.9375 -5.0625 6.875 C-4.711875 5.92625 -4.36125 4.9775 -4 4 C-1.875 3.125 -1.875 3.125 0 3 C0 2.01 0 1.02 0 0 Z " fill="#4B494C" transform="translate(197,205)"/>
<path d="M0 0 C1 3 1 3 0.3125 5.0625 C-2.00836855 8.48854405 -4.74941502 8.93629196 -8.6875 9.9375 C-9.780625 10.288125 -10.87375 10.63875 -12 11 C-12.33 11.99 -12.66 12.98 -13 14 C-13.99 13.67 -14.98 13.34 -16 13 C-16.33 12.34 -16.66 11.68 -17 11 C-16.67 10.34 -16.34 9.68 -16 9 C-16.75925781 9.02320313 -17.51851562 9.04640625 -18.30078125 9.0703125 C-19.29464844 9.08835938 -20.28851563 9.10640625 -21.3125 9.125 C-22.79169922 9.15980469 -22.79169922 9.15980469 -24.30078125 9.1953125 C-27 9 -27 9 -30 7 C-29.04480469 6.96261719 -28.08960938 6.92523438 -27.10546875 6.88671875 C-12.63732416 6.33652051 -12.63732416 6.33652051 0 0 Z " fill="#323231" transform="translate(192,210)"/>
<path d="M0 0 C1.65 0 3.3 0 5 0 C4.51789062 0.7734375 4.03578125 1.546875 3.5390625 2.34375 C-0.01023878 8.19647538 -2.82882115 13.23318886 -4 20 C-6.0625 17.6875 -6.0625 17.6875 -8 15 C-7.67 14.01 -7.34 13.02 -7 12 C-7.99 12 -8.98 12 -10 12 C-9.67 9.69 -9.34 7.38 -9 5 C-7.68 4.67 -6.36 4.34 -5 4 C-5 3.34 -5 2.68 -5 2 C-3.35 2 -1.7 2 0 2 C0 1.34 0 0.68 0 0 Z " fill="#343228" transform="translate(26,160)"/>
<path d="M0 0 C0.33 0.66 0.66 1.32 1 2 C1.99 2 2.98 2 4 2 C4 3.32 4 4.64 4 6 C4.66 5.34 5.32 4.68 6 4 C6.33 8.29 6.66 12.58 7 17 C6.01 15.68 5.02 14.36 4 13 C3.34 15.31 2.68 17.62 2 20 C1.34 20 0.68 20 0 20 C-0.33 20.99 -0.66 21.98 -1 23 C-3.02656743 15.14705119 -2.04581257 7.72659569 0 0 Z " fill="#4E4C48" transform="translate(15,170)"/>
<path d="M0 0 C0.8971875 0.5259375 0.8971875 0.5259375 1.8125 1.0625 C1.1525 1.0625 0.4925 1.0625 -0.1875 1.0625 C-0.5175 2.0525 -0.8475 3.0425 -1.1875 4.0625 C-1.1875 3.4025 -1.1875 2.7425 -1.1875 2.0625 C-1.8475 2.7225 -2.5075 3.3825 -3.1875 4.0625 C-3.043125 4.64 -2.89875 5.2175 -2.75 5.8125 C-1.97822685 8.89959259 -2.35854965 11.00176026 -3.1875 14.0625 C-5.1875 16.3125 -5.1875 16.3125 -7.1875 18.0625 C-7.5175 18.7225 -7.8475 19.3825 -8.1875 20.0625 C-10.1675 19.7325 -12.1475 19.4025 -14.1875 19.0625 C-13.5275 18.7325 -12.8675 18.4025 -12.1875 18.0625 C-11.41851653 16.25219954 -11.41851653 16.25219954 -10.8125 14.0625 C-9.73403398 10.66369798 -8.56837665 7.35130546 -7.1875 4.0625 C-6.7234375 2.94875 -6.7234375 2.94875 -6.25 1.8125 C-4.55374944 -0.98132445 -2.92091056 -1.25181881 0 0 Z " fill="#323036" transform="translate(82.1875,125.9375)"/>
<path d="M0 0 C2.0625 0.4375 2.0625 0.4375 4 1 C2.48582906 1.96882567 0.96325846 2.92452752 -0.5625 3.875 C-1.40941406 4.40867188 -2.25632812 4.94234375 -3.12890625 5.4921875 C-9.53680847 8.85742594 -15.37551003 9.27295467 -22.4375 9.125 C-23.26443359 9.11597656 -24.09136719 9.10695312 -24.94335938 9.09765625 C-26.96236708 9.07431512 -28.98122356 9.03845288 -31 9 C-31 8.67 -31 8.34 -31 8 C-29.02 8 -27.04 8 -25 8 C-24.67 7.01 -24.34 6.02 -24 5 C-22.02 5 -20.04 5 -18 5 C-18 4.34 -18 3.68 -18 3 C-15.525 3.99 -15.525 3.99 -13 5 C-12.5875 4.484375 -12.175 3.96875 -11.75 3.4375 C-11.1725 2.963125 -10.595 2.48875 -10 2 C-8.66158328 2.31229724 -7.32860925 2.64830932 -6 3 C-2.71916905 1.98854712 -2.71916905 1.98854712 0 0 Z " fill="#474746" transform="translate(77,216)"/>
<path d="M0 0 C1.12535156 0.54140625 1.12535156 0.54140625 2.2734375 1.09375 C11.80531251 5.41550693 19.08672063 6.44809717 29 3 C28.67 3.99 28.34 4.98 28 6 C22.98190157 8.44471462 17.48066864 8.61499252 12 8 C9.6953125 6.984375 9.6953125 6.984375 8 6 C8 7.32 8 8.64 8 10 C15.26 9.67 22.52 9.34 30 9 C26.37706031 12.62293969 22.19827608 12.18517542 17.25 12.25 C11.40986149 12.22561529 7.24212692 11.51622092 2 9 C3.32 8.67 4.64 8.34 6 8 C5.67 6.68 5.34 5.36 5 4 C3.68 4 2.36 4 1 4 C0.67 2.68 0.34 1.36 0 0 Z " fill="#E2AE52" transform="translate(38,205)"/>
<path d="M0 0 C0.33 0.99 0.66 1.98 1 3 C1.66 3.33 2.32 3.66 3 4 C3.66 4.33 4.32 4.66 5 5 C5.33 5.99 5.66 6.98 6 8 C5.01 8.33 4.02 8.66 3 9 C4.1446875 9.1546875 4.1446875 9.1546875 5.3125 9.3125 C8.19807812 10.05067115 9.26179817 10.62140803 11 13 C11 13.99 11 14.98 11 16 C3.26227607 15.51639225 -3.0676344 8.42560216 -8 3 C-8 2.34 -8 1.68 -8 1 C-5.29120665 -0.35439668 -2.99066732 -0.06501451 0 0 Z " fill="#313232" transform="translate(144,206)"/>
<path d="M0 0 C2.44977061 3.00203104 3.93683407 5.90941125 5.375 9.5 C5.80296875 10.551875 6.2309375 11.60375 6.671875 12.6875 C7.55729167 14.89583333 8.44270833 17.10416667 9.328125 19.3125 C9.75609375 20.364375 10.1840625 21.41625 10.625 22.5 C11.00914062 23.4590625 11.39328125 24.418125 11.7890625 25.40625 C12.89753012 28.04196675 12.89753012 28.04196675 14.7109375 30.15625 C15.34902344 31.06890625 15.34902344 31.06890625 16 32 C15.67 32.99 15.34 33.98 15 35 C12.36 35 9.72 35 7 35 C7 33.68 7 32.36 7 31 C7.99 31 8.98 31 10 31 C10 31.66 10 32.32 10 33 C10.66 33 11.32 33 12 33 C11.67 31.02 11.34 29.04 11 27 C10.34 27 9.68 27 9 27 C8.5978125 25.2984375 8.5978125 25.2984375 8.1875 23.5625 C7.5996875 21.7990625 7.5996875 21.7990625 7 20 C6.01 19.67 5.02 19.34 4 19 C4 18.34 4 17.68 4 17 C3.34 17 2.68 17 2 17 C1.34 15.68 0.68 14.36 0 13 C0.99 12.01 1.98 11.02 3 10 C2.2575 8.63875 2.2575 8.63875 1.5 7.25 C0 4 0 4 0 0 Z " fill="#3F331F" transform="translate(128,172)"/>
<path d="M0 0 C1.31634855 2.33984652 2.3343981 4.46405435 3.3125 6.9375 C3.58900391 7.58396484 3.86550781 8.23042969 4.15039062 8.89648438 C4.8400366 10.56935358 5.42780222 12.28340667 6 14 C5.67 14.66 5.34 15.32 5 16 C4.34 15.67 3.68 15.34 3 15 C2.67 15.66 2.34 16.32 2 17 C1.01 15.02 0.02 13.04 -1 11 C-1.99 11.495 -1.99 11.495 -3 12 C-4.50559539 10.03617993 -5.89131683 8.21736634 -7 6 C-6.66666667 4.66666667 -6.33333333 3.33333333 -6 2 C-6.33 1.34 -6.66 0.68 -7 0 C-2.82293292 -1.39235569 -2.82293292 -1.39235569 0 0 Z " fill="#40403F" transform="translate(148,126)"/>
<path d="M0 0 C2.11721886 3.48718401 2.11721886 3.48718401 1.56689453 5.89477539 C1.37981934 6.58949951 1.19274414 7.28422363 1 8 C0.90468176 10.82310196 0.86054 13.61538978 0.875 16.4375 C0.87113281 17.18837891 0.86726563 17.93925781 0.86328125 18.71289062 C0.87013394 22.60864317 1.04698244 26.1954934 2 30 C1.01 30 0.02 30 -1 30 C-4.0517291 22.49783264 -4.33608711 16.05364285 -4 8 C-3.34 8 -2.68 8 -2 8 C-1.855625 6.865625 -1.71125 5.73125 -1.5625 4.5625 C-1 1 -1 1 0 0 Z " fill="#F7B13A" transform="translate(27,168)"/>
<path d="M0 0 C2.475 0.495 2.475 0.495 5 1 C5.226875 1.94875 5.45375 2.8975 5.6875 3.875 C6.69083714 7.19323388 6.69083714 7.19323388 9.625 8.375 C10.40875 8.58125 11.1925 8.7875 12 9 C12.33 7.35 12.66 5.7 13 4 C14.98 4.66 16.96 5.32 19 6 C18.01 6.495 18.01 6.495 17 7 C17.33 8.98 17.66 10.96 18 13 C24.93 13.495 24.93 13.495 32 14 C27.65144941 16.89903373 24.10205531 16.77804622 19 16 C11.61862608 13.39753316 5.16711976 9.80245242 1 3 C0.67 2.01 0.34 1.02 0 0 Z " fill="#424241" transform="translate(145,195)"/>
<path d="M0 0 C0.66 0 1.32 0 2 0 C2.70180531 1.4096347 3.38593958 2.82807641 4.0625 4.25 C4.44535156 5.03890625 4.82820312 5.8278125 5.22265625 6.640625 C6 9 6 9 5.96875 11.15625 C4.47407658 14.00095103 2.42500614 14.28850377 -0.5625 15.25 C-1.57441406 15.58515625 -2.58632812 15.9203125 -3.62890625 16.265625 C-4.41136719 16.50796875 -5.19382812 16.7503125 -6 17 C-4.13236819 11.27789404 -2.14710968 5.62338249 0 0 Z " fill="#ACACAC" transform="translate(126,119)"/>
<path d="M0 0 C0.66 0.33 1.32 0.66 2 1 C2 1.99 2 2.98 2 4 C0.68 4.33 -0.64 4.66 -2 5 C-2 5.66 -2 6.32 -2 7 C-6.77092956 8.23402862 -11.42469446 8.11265112 -16.3125 8.0625 C-17.56643555 8.05573242 -17.56643555 8.05573242 -18.84570312 8.04882812 C-20.89716649 8.03710548 -22.94859273 8.01917203 -25 8 C-25 6.68 -25 5.36 -25 4 C-24.16082031 4.24169922 -24.16082031 4.24169922 -23.3046875 4.48828125 C-17.19853337 5.84405445 -10.72269955 5.5752148 -5 3 C-4.34 2.34 -3.68 1.68 -3 1 C-2.01 0.67 -1.02 0.34 0 0 Z " fill="#F5B23A" transform="translate(71,207)"/>
<path d="M0 0 C1.8515625 1.57421875 1.8515625 1.57421875 3.625 3.6875 C8.06515155 8.47639908 12.96917578 10.69409662 19 13 C19 13.33 19 13.66 19 14 C17.02 14 15.04 14 13 14 C13 13.34 13 12.68 13 12 C11.700625 11.62875 11.700625 11.62875 10.375 11.25 C6.81697746 9.93221387 4.0773845 8.19813178 1 6 C0.01 6.495 0.01 6.495 -1 7 C-3.125 6.5625 -3.125 6.5625 -5 6 C-5 5.34 -5 4.68 -5 4 C-5.99 4 -6.98 4 -8 4 C-7.67 3.01 -7.34 2.02 -7 1 C-4.42371908 -0.28814046 -2.85870263 -0.32192597 0 0 Z " fill="#31322E" transform="translate(28,203)"/>
<path d="M0 0 C5.12517839 3.27441953 7.37860023 7.26751011 9 13 C9.29505591 16.36738413 9.25315279 19.63166144 9 23 C8.67 23 8.34 23 8 23 C7.67 19.37 7.34 15.74 7 12 C5.68 11.67 4.36 11.34 3 11 C1.3255761 10.3530635 -0.34302621 9.69040574 -2 9 C-2 7.33333333 -2 5.66666667 -2 4 C-1.01 4 -0.02 4 1 4 C0.67 2.68 0.34 1.36 0 0 Z " fill="#463315" transform="translate(188,164)"/>
<path d="M0 0 C0 0.66 0 1.32 0 2 C-2.97 2.66 -5.94 3.32 -9 4 C-9 4.66 -9 5.32 -9 6 C-9.969375 6.12375 -10.93875 6.2475 -11.9375 6.375 C-13.4534375 6.684375 -13.4534375 6.684375 -15 7 C-15.33 7.66 -15.66 8.32 -16 9 C-17.98 9 -19.96 9 -22 9 C-21.2265625 7.824375 -21.2265625 7.824375 -20.4375 6.625 C-19.963125 5.75875 -19.48875 4.8925 -19 4 C-19.33 3.34 -19.66 2.68 -20 2 C-19.03578125 1.93941406 -18.0715625 1.87882813 -17.078125 1.81640625 C-15.81484375 1.73261719 -14.5515625 1.64882812 -13.25 1.5625 C-11.99703125 1.48128906 -10.7440625 1.40007812 -9.453125 1.31640625 C-6.25794727 1.02363544 -3.17641562 0 0 0 Z " fill="#383022" transform="translate(68,215)"/>
<path d="M0 0 C0.66 0 1.32 0 2 0 C2 0.66 2 1.32 2 2 C3.65 2.33 5.3 2.66 7 3 C6.0919838 4.13199353 5.17316174 5.25532363 4.25 6.375 C3.73953125 7.00148437 3.2290625 7.62796875 2.703125 8.2734375 C0.87548978 10.12622366 -0.55268354 11.12320552 -3 12 C-3.99 11.67 -4.98 11.34 -6 11 C-5.6875 9.0625 -5.6875 9.0625 -5 7 C-4.01 6.67 -3.02 6.34 -2 6 C-2 5.34 -2 4.68 -2 4 C-1.34 4 -0.68 4 0 4 C0 2.68 0 1.36 0 0 Z " fill="#312D24" transform="translate(184,197)"/>
<path d="M0 0 C0.33 0 0.66 0 1 0 C1.33 3.63 1.66 7.26 2 11 C1.34 11 0.68 11 0 11 C0.33 12.65 0.66 14.3 1 16 C1.99 15.67 2.98 15.34 4 15 C2.90931332 18.77545388 2.0916909 21.47043472 -1 24 C-1.33 22.35 -1.66 20.7 -2 19 C-3.32 20.32 -4.64 21.64 -6 23 C-6.66 22.67 -7.32 22.34 -8 22 C-7.401875 21.34 -6.80375 20.68 -6.1875 20 C-1.69730754 13.84202177 -0.50353042 7.50086695 0 0 Z " fill="#E2AE51" transform="translate(197,180)"/>
<path d="M0 0 C2 2 2 2 2.4375 5.625 C2.33857534 10.53526036 0.20719463 14.34574188 -3 18 C-3.66 18 -4.32 18 -5 18 C-3.4955036 5.3192446 -3.4955036 5.3192446 0 0 Z " fill="#F6B13A" transform="translate(87,178)"/>
<path d="M0 0 C0.66 0 1.32 0 2 0 C1.690625 0.66 1.38125 1.32 1.0625 2 C-0.58883648 6.66259712 -1.59957704 11.20126887 0 16 C-0.804375 16.2475 -1.60875 16.495 -2.4375 16.75 C-5.171081 17.72238859 -5.171081 17.72238859 -5.8125 20.125 C-5.874375 20.74375 -5.93625 21.3625 -6 22 C-6.66 22 -7.32 22 -8 22 C-8.185625 23.0828125 -8.185625 23.0828125 -8.375 24.1875 C-8.9904931 26.95721894 -9.88444374 29.3970354 -11 32 C-11.66 31.67 -12.32 31.34 -13 31 C-8.71 20.77 -4.42 10.54 0 0 Z " fill="#40341C" transform="translate(101,160)"/>
<path d="M0 0 C0.66 0 1.32 0 2 0 C2 0.66 2 1.32 2 2 C2.86625 1.7525 3.7325 1.505 4.625 1.25 C8.98859312 0.92677088 10.6341724 2.35542117 14 5 C13.01 6.98 12.02 8.96 11 11 C6.23249574 8.61624787 3.14529325 5.21534147 0 1 C0 0.67 0 0.34 0 0 Z " fill="#464646" transform="translate(21,207)"/>
<path d="M0 0 C2.97 0.33 5.94 0.66 9 1 C9 1.66 9 2.32 9 3 C9.66 3.33 10.32 3.66 11 4 C10.01 4.495 10.01 4.495 9 5 C8.67 5.99 8.34 6.98 8 8 C3.71 7.67 -0.58 7.34 -5 7 C-4.01 6.01 -3.02 5.02 -2 4 C-1.34 2.68 -0.68 1.36 0 0 Z " fill="#4D4D4D" transform="translate(170,158)"/>
<path d="M0 0 C4.61310391 4.61310391 5.30351514 8.31636254 5.375 14.75 C5.28083612 21.65293642 4.21278322 27.58785553 -0.63671875 32.73828125 C-1.08660156 33.15464844 -1.53648438 33.57101563 -2 34 C-2 32.02 -2 30.04 -2 28 C-0.68 27.67 0.64 27.34 2 27 C1.67 25.02 1.34 23.04 1 21 C1.99 21 2.98 21 4 21 C4 17.37 4 13.74 4 10 C3.01 9.67 2.02 9.34 1 9 C0.67 6.03 0.34 3.06 0 0 Z " fill="#372A13" transform="translate(77,168)"/>
<path d="M0 0 C-0.99 0.99 -1.98 1.98 -3 3 C-3 2.34 -3 1.68 -3 1 C-4.32 2.32 -5.64 3.64 -7 5 C-6.34 5 -5.68 5 -5 5 C-5 5.66 -5 6.32 -5 7 C-7.64 6.67 -10.28 6.34 -13 6 C-13.33 6.66 -13.66 7.32 -14 8 C-14.99 7.67 -15.98 7.34 -17 7 C-16 4 -16 4 -13.671875 2.578125 C-12.70765625 2.13984375 -11.7434375 1.7015625 -10.75 1.25 C-9.79609375 0.80140625 -8.8421875 0.3528125 -7.859375 -0.109375 C-4.73610406 -1.0821971 -3.09472585 -0.92615883 0 0 Z " fill="#404041" transform="translate(48,144)"/>
<path d="M0 0 C3.73487777 0.4979837 5.81237635 0.87491756 9 3 C9 3.66 9 4.32 9 5 C9.99 5.66 10.98 6.32 12 7 C11.67 7.99 11.34 8.98 11 10 C10.34 9.34 9.68 8.68 9 8 C7.68 8 6.36 8 5 8 C4.01 9.98 3.02 11.96 2 14 C1.67 14 1.34 14 1 14 C1 12.35 1 10.7 1 9 C1.66 9 2.32 9 3 9 C2.01 6.03 1.02 3.06 0 0 Z " fill="#EDBD62" transform="translate(90,139)"/>
<path d="M0 0 C1.11375 0.4640625 1.11375 0.4640625 2.25 0.9375 C4.50692176 1.8094925 6.6450153 2.47667007 9 3 C9.33 2.01 9.66 1.02 10 0 C11.98 2.31 13.96 4.62 16 7 C15.67 7.66 15.34 8.32 15 9 C14.34 7.68 13.68 6.36 13 5 C12.01 5 11.02 5 10 5 C10 5.99 10 6.98 10 8 C10.66 8 11.32 8 12 8 C13.48320272 11.83887763 14.22419163 14.06204091 13 18 C12.731875 17.35933594 12.46375 16.71867187 12.1875 16.05859375 C9.50165711 10.13030238 6.69895948 6.30324913 1.57421875 2.27734375 C1.05472656 1.85582031 0.53523437 1.43429688 0 1 C0 0.67 0 0.34 0 0 Z " fill="#E2AE52" transform="translate(183,159)"/>
<path d="M0 0 C2 3 2 3 2 6 C1.01 6.495 1.01 6.495 0 7 C-0.45375 8.155 -0.9075 9.31 -1.375 10.5 C-3 14 -3 14 -5.1875 14.9375 C-5.785625 14.958125 -6.38375 14.97875 -7 15 C-6.33333333 11.66666667 -5.66666667 8.33333333 -5 5 C-4.34 5 -3.68 5 -3 5 C-2.814375 4.0409375 -2.814375 4.0409375 -2.625 3.0625 C-2.41875 2.381875 -2.2125 1.70125 -2 1 C-1.34 0.67 -0.68 0.34 0 0 Z " fill="#333231" transform="translate(107,153)"/>
<path d="M0 0 C2.9375 0.375 2.9375 0.375 6 1 C6.33 1.66 6.66 2.32 7 3 C5.02 5.31 3.04 7.62 1 10 C-1.475 9.01 -1.475 9.01 -4 8 C-4 6.68 -4 5.36 -4 4 C-2.68 3.67 -1.36 3.34 0 3 C0 2.01 0 1.02 0 0 Z " fill="#404041" transform="translate(197,205)"/>
<path d="M0 0 C2.7920147 1.39600735 3.00162933 3.00416384 4.125 5.875 C4.47820312 6.75929687 4.83140625 7.64359375 5.1953125 8.5546875 C6 11 6 11 6 14 C3.625 14.125 3.625 14.125 1 14 C-1 12 -1 12 -1.1875 8.125 C-1.120382 5.28539226 -0.90494365 2.71483095 0 0 Z " fill="#31342E" transform="translate(117,146)"/>
<path d="M0 0 C0.99 0.33 1.98 0.66 3 1 C2.34 2.65 1.68 4.3 1 6 C-1.31 6 -3.62 6 -6 6 C-6 6.66 -6 7.32 -6 8 C-9.3 8 -12.6 8 -16 8 C-16 7.34 -16 6.68 -16 6 C-14.96875 5.896875 -13.9375 5.79375 -12.875 5.6875 C-9.03314217 5.00588006 -6.42613244 3.79093286 -3 2 C-2.01 2 -1.02 2 0 2 C0 1.34 0 0.68 0 0 Z " fill="#F6B239" transform="translate(185,207)"/>
<path d="M0 0 C1.65 0 3.3 0 5 0 C5.33 0.66 5.66 1.32 6 2 C6.99 2.66 7.98 3.32 9 4 C8.34 5.65 7.68 7.3 7 9 C7.66 9.33 8.32 9.66 9 10 C7.02 10.66 5.04 11.32 3 12 C2.01 8.04 1.02 4.08 0 0 Z " fill="#434543" transform="translate(186,173)"/>
<path d="M0 0 C2.31 0 4.62 0 7 0 C7.33 0.99 7.66 1.98 8 3 C8.99 3.33 9.98 3.66 11 4 C11 4.66 11 5.32 11 6 C8.36 6.66 5.72 7.32 3 8 C0 3.375 0 3.375 0 0 Z " fill="#34312C" transform="translate(16,197)"/>
<path d="M0 0 C0.33 0.66 0.66 1.32 1 2 C3.52733235 2.65555119 3.52733235 2.65555119 6 3 C7.45606519 7.52092968 6.27032841 10.51648796 5 15 C2.9375 12.6875 2.9375 12.6875 1 10 C1.33 9.01 1.66 8.02 2 7 C1.01 7 0.02 7 -1 7 C-0.67 4.69 -0.34 2.38 0 0 Z " fill="#454245" transform="translate(17,165)"/>
<path d="M0 0 C0.66 0 1.32 0 2 0 C1.01 2.97 0.02 5.94 -1 9 C-3.75 9.75 -3.75 9.75 -7 10 C-9.375 8.25 -9.375 8.25 -11 6 C-11 5.01 -11 4.02 -11 3 C-6.545 3.99 -6.545 3.99 -2 5 C-1.34 3.35 -0.68 1.7 0 0 Z " fill="#30322F" transform="translate(76,141)"/>
<path d="M0 0 C0.8971875 0.5259375 0.8971875 0.5259375 1.8125 1.0625 C1.1525 1.0625 0.4925 1.0625 -0.1875 1.0625 C-0.5175 2.0525 -0.8475 3.0425 -1.1875 4.0625 C-1.1875 3.4025 -1.1875 2.7425 -1.1875 2.0625 C-1.8475 2.7225 -2.5075 3.3825 -3.1875 4.0625 C-3.0225 4.701875 -2.8575 5.34125 -2.6875 6 C-2.5225 6.680625 -2.3575 7.36125 -2.1875 8.0625 C-3.1775 9.5475 -3.1775 9.5475 -4.1875 11.0625 C-4.1875 10.4025 -4.1875 9.7425 -4.1875 9.0625 C-5.8375 9.7225 -7.4875 10.3825 -9.1875 11.0625 C-8.71019162 9.6035574 -8.23058958 8.14536504 -7.75 6.6875 C-7.48316406 5.87539062 -7.21632813 5.06328125 -6.94140625 4.2265625 C-6.1875 2.0625 -6.1875 2.0625 -5.1875 0.0625 C-2.1875 -0.9375 -2.1875 -0.9375 0 0 Z " fill="#464746" transform="translate(82.1875,125.9375)"/>
<path d="M0 0 C2.1464753 0.11344376 4.29220592 0.24106345 6.4375 0.375 C8.22994141 0.47941406 8.22994141 0.47941406 10.05859375 0.5859375 C11.02925781 0.72257813 11.99992187 0.85921875 13 1 C13.33 1.66 13.66 2.32 14 3 C13.34 3 12.68 3 12 3 C12 3.66 12 4.32 12 5 C12.66 5.33 13.32 5.66 14 6 C14.625 9.0625 14.625 9.0625 15 12 C14.5875 11.62488281 14.175 11.24976563 13.75 10.86328125 C9.8838471 7.43724843 5.96083034 4.59373164 1.50390625 1.98046875 C1.00761719 1.65691406 0.51132813 1.33335937 0 1 C0 0.67 0 0.34 0 0 Z " fill="#EAB049" transform="translate(64,157)"/>
<path d="M0 0 C2.31 0 4.62 0 7 0 C6.2575 0.53625 5.515 1.0725 4.75 1.625 C1.80401395 4.16926068 0.03599494 6.70028406 -2 10 C-2.99 11.485 -2.99 11.485 -4 13 C-4 12.34 -4 11.68 -4 11 C-4.99 11 -5.98 11 -7 11 C-6.25 8.125 -6.25 8.125 -5 5 C-2.9375 3.8125 -2.9375 3.8125 -1 3 C-0.67 2.01 -0.34 1.02 0 0 Z " fill="#50514E" transform="translate(155,166)"/>
<path d="M0 0 C1.50303217 2.38716874 2.01411453 3.71065206 1.875 6.5625 C1 9 1 9 -3 12 C-3.99 8.7 -4.98 5.4 -6 2 C-4.35 2 -2.7 2 -1 2 C-0.67 1.34 -0.34 0.68 0 0 Z " fill="#464647" transform="translate(127,172)"/>
<path d="M0 0 C0.33 0.66 0.66 1.32 1 2 C1.99 2.33 2.98 2.66 4 3 C3.16855469 3.48919922 3.16855469 3.48919922 2.3203125 3.98828125 C1.23363281 4.64376953 1.23363281 4.64376953 0.125 5.3125 C-0.59429687 5.74175781 -1.31359375 6.17101562 -2.0546875 6.61328125 C-4.26846333 8.01752375 -4.26846333 8.01752375 -6 11 C-7.65 10.67 -9.3 10.34 -11 10 C-10.01 9.67 -9.02 9.34 -8 9 C-8.33 7.68 -8.66 6.36 -9 5 C-3.375 2 -3.375 2 0 2 C0 1.34 0 0.68 0 0 Z " fill="#464547" transform="translate(45,163)"/>
<path d="M0 0 C3.4375 0.8125 3.4375 0.8125 7 2 C8.13643966 5.40931897 7.86747764 6.00335456 6.5625 9.1875 C6.27503906 9.90292969 5.98757812 10.61835938 5.69140625 11.35546875 C5.46324219 11.89816406 5.23507813 12.44085938 5 13 C4.67 11.68 4.34 10.36 4 9 C3.34 9 2.68 9 2 9 C2 7.35 2 5.7 2 4 C0.35 3.67 -1.3 3.34 -3 3 C-2.01 2.67 -1.02 2.34 0 2 C0 1.34 0 0.68 0 0 Z " fill="#E5AE4D" transform="translate(99,142)"/>
<path d="M0 0 C2.2477975 2.05233685 3.0022242 3.00667261 4 6 C4.12213515 8.86591555 4.18512182 11.69679512 4.1875 14.5625 C4.19974609 15.34302734 4.21199219 16.12355469 4.22460938 16.92773438 C4.22985217 18.95320035 4.12234328 20.97822552 4 23 C3.34 23.66 2.68 24.32 2 25 C1.90912109 23.17275391 1.90912109 23.17275391 1.81640625 21.30859375 C1.73193597 19.68488723 1.64729128 18.06118978 1.5625 16.4375 C1.50352539 15.23770508 1.50352539 15.23770508 1.44335938 14.01367188 C1.19251844 9.28628494 0.74678186 4.67523099 0 0 Z " fill="#E2AF51" transform="translate(199,169)"/>
<path d="M0 0 C0.33 0.99 0.66 1.98 1 3 C1.66 3 2.32 3 3 3 C3.33 4.98 3.66 6.96 4 9 C3.34 9 2.68 9 2 9 C2 8.34 2 7.68 2 7 C0.68 7.99 -0.64 8.98 -2 10 C-3.76462683 6.91190305 -4 5.76687864 -4 2 C-2.68 1.34 -1.36 0.68 0 0 Z " fill="#363635" transform="translate(136,196)"/>
<path d="M0 0 C0.66 0.33 1.32 0.66 2 1 C1.67 1.66 1.34 2.32 1 3 C0.34 3 -0.32 3 -1 3 C-1.185625 4.2065625 -1.185625 4.2065625 -1.375 5.4375 C-1.58125 6.283125 -1.7875 7.12875 -2 8 C-2.99 8.495 -2.99 8.495 -4 9 C-6.82148124 15.74020518 -6.17946445 22.81145157 -6 30 C-9.39842449 24.90236326 -8.5408514 18.94936545 -8 13 C-6.47408647 7.91886527 -3.4739964 3.9702816 0 0 Z " fill="#463414" transform="translate(151,163)"/>
<path d="M0 0 C0.33 1.32 0.66 2.64 1 4 C0.01 4 -0.98 4 -2 4 C-1.34 5.32 -0.68 6.64 0 8 C-0.99 8.33 -1.98 8.66 -3 9 C-5.33333333 6.66666667 -7.66666667 4.33333333 -10 2 C-6.38026598 0.68373308 -3.90432869 0 0 0 Z " fill="#434646" transform="translate(188,164)"/>
<path d="M0 0 C0.66 0 1.32 0 2 0 C2.268125 0.556875 2.53625 1.11375 2.8125 1.6875 C3.99530663 4.09305121 3.99530663 4.09305121 5.6875 6.5625 C6.120625 7.366875 6.55375 8.17125 7 9 C6.67 9.99 6.34 10.98 6 12 C5.34 12 4.68 12 4 12 C3.67 12.66 3.34 13.32 3 14 C2.29866401 12.42274653 1.614417 10.83788667 0.9375 9.25 C0.55464844 8.36828125 0.17179687 7.4865625 -0.22265625 6.578125 C-1.04600008 3.84743691 -0.9773992 2.63098653 0 0 Z " fill="#4C494A" transform="translate(114,153)"/>
<path d="M0 0 C0.66 0.33 1.32 0.66 2 1 C1.34 1.9075 0.68 2.815 0 3.75 C-2.34939828 6.93175815 -2.34939828 6.93175815 -2 11 C-3.65 11 -5.3 11 -7 11 C-7 11.66 -7 12.32 -7 13 C-7.99 13.33 -8.98 13.66 -10 14 C-8.62815653 9.93501119 -6.77931541 7.32603439 -3.875 4.1875 C-3.15054687 3.39730469 -2.42609375 2.60710937 -1.6796875 1.79296875 C-1.12539063 1.20128906 -0.57109375 0.60960937 0 0 Z " fill="#575758" transform="translate(28,151)"/>
<path d="M0 0 C4.32239956 3.34003602 7.17477391 6.32751069 10 11 C9.67 11.66 9.34 12.32 9 13 C5.5625 11.6875 5.5625 11.6875 2 10 C0.89131683 6.67395049 0.45822468 3.46941546 0 0 Z " fill="#4F5050" transform="translate(196,151)"/>
<path d="M0 0 C2.625 0.375 2.625 0.375 5 1 C5.625 2.875 5.625 2.875 6 5 C4 7 4 7 1.375 7.125 C0.59125 7.08375 -0.1925 7.0425 -1 7 C-1.625 4.625 -1.625 4.625 -2 2 C-1.34 1.34 -0.68 0.68 0 0 Z " fill="#333333" transform="translate(111,105)"/>
<path d="M0 0 C0.845625 0.144375 1.69125 0.28875 2.5625 0.4375 C3.5525 2.0875 4.5425 3.7375 5.5625 5.4375 C-0.3775 5.4375 -6.3175 5.4375 -12.4375 5.4375 C-12.4375 5.1075 -12.4375 4.7775 -12.4375 4.4375 C-10.41927083 3.98177083 -8.40104167 3.52604167 -6.3828125 3.0703125 C-3.68440145 2.19251613 -2.89474639 0.51956986 0 0 Z " fill="#545553" transform="translate(173.4375,219.5625)"/>
<path d="M0 0 C0.58007812 0.39832031 1.16015625 0.79664063 1.7578125 1.20703125 C6.0639288 4.12751607 10.274163 6.81884446 15 9 C14.34 9.66 13.68 10.32 13 11 C11.0625 10.625 11.0625 10.625 9 10 C8.01 10 7.02 10 6 10 C5.67 10.66 5.34 11.32 5 12 C4.34 11.67 3.68 11.34 3 11 C3 9 3 9 5 7 C4.34 6.67 3.68 6.34 3 6 C3 5.34 3 4.68 3 4 C1.68 3.34 0.36 2.68 -1 2 C-0.67 1.34 -0.34 0.68 0 0 Z " fill="#3A3221" transform="translate(144,206)"/>
<path d="M0 0 C1.32 0.66 2.64 1.32 4 2 C3.01 2 2.02 2 1 2 C1.33 3.65 1.66 5.3 2 7 C1.01 7.495 1.01 7.495 0 8 C-1.05352843 10.30965848 -2.05719096 12.6429774 -3 15 C-3.66 15 -4.32 15 -5 15 C-5.33 15.66 -5.66 16.32 -6 17 C-5.34496718 12.94180817 -4.05440879 9.46028718 -2.4375 5.6875 C-1.75494141 4.08455078 -1.75494141 4.08455078 -1.05859375 2.44921875 C-0.53458984 1.23685547 -0.53458984 1.23685547 0 0 Z " fill="#E1AB4D" transform="translate(82,135)"/>
<path d="M0 0 C0.66 0 1.32 0 2 0 C2.69685498 1.6210103 3.38222861 3.24696066 4.0625 4.875 C4.63677734 6.23238281 4.63677734 6.23238281 5.22265625 7.6171875 C6 10 6 10 5 12 C4.34 11.67 3.68 11.34 3 11 C2.67 11.66 2.34 12.32 2 13 C0.68 10.03 -0.64 7.06 -2 4 C-1.34 4 -0.68 4 0 4 C0 2.68 0 1.36 0 0 Z " fill="#484946" transform="translate(148,130)"/>
<path d="M0 0 C0 0.99 0 1.98 0 3 C-1.32 3 -2.64 3 -4 3 C-4 3.66 -4 4.32 -4 5 C-7.2347262 6.07824207 -9.13539395 5.99049544 -12.5 5.6875 C-13.4590625 5.60886719 -14.418125 5.53023437 -15.40625 5.44921875 C-18 5 -18 5 -21 3 C-19.98679688 2.95101562 -18.97359375 2.90203125 -17.9296875 2.8515625 C-16.57810089 2.77647436 -15.22653962 2.70092919 -13.875 2.625 C-13.20984375 2.5940625 -12.5446875 2.563125 -11.859375 2.53125 C-7.60178738 2.28080367 -3.97914217 1.52471803 0 0 Z " fill="#3F311C" transform="translate(183,214)"/>
<path d="M0 0 C0.66 0.66 1.32 1.32 2 2 C4.06874034 2.6425235 4.06874034 2.6425235 6 3 C5.67 3.33 5.34 3.66 5 4 C4.95936168 5.66617115 4.957279 7.33388095 5 9 C2.03 8.505 2.03 8.505 -1 8 C-1 7.34 -1 6.68 -1 6 C-1.66 5.67 -2.32 5.34 -3 5 C-2.01 3.35 -1.02 1.7 0 0 Z " fill="#3F3D3C" transform="translate(187,191)"/>
<path d="M0 0 C2.32601085 2.85464968 3.9610176 5.45014348 5 9 C4.625 11.8125 4.625 11.8125 4 14 C0.25 15.125 0.25 15.125 -2 14 C-1.6875 12.125 -1.6875 12.125 -1 10 C-0.01 9.34 0.98 8.68 2 8 C1.67 7.4225 1.34 6.845 1 6.25 C0 4 0 4 0 0 Z " fill="#393224" transform="translate(123,160)"/>
<path d="M0 0 C0.99 0.33 1.98 0.66 3 1 C2.65066406 1.54269531 2.30132812 2.08539063 1.94140625 2.64453125 C1.25884766 3.71767578 1.25884766 3.71767578 0.5625 4.8125 C0.11003906 5.52019531 -0.34242188 6.22789062 -0.80859375 6.95703125 C-2.86535748 10.48387528 -3.23283495 13.68442438 -3.5625 17.6875 C-3.64628906 18.68136719 -3.73007813 19.67523438 -3.81640625 20.69921875 C-3.87699219 21.45847656 -3.93757812 22.21773437 -4 23 C-4.33 23 -4.66 23 -5 23 C-5.22211116 21.06403108 -5.42722992 19.12610672 -5.625 17.1875 C-5.74101562 16.10855469 -5.85703125 15.02960938 -5.9765625 13.91796875 C-6 11 -6 11 -4 8 C-3.61500109 6.34450469 -3.27206865 4.6777567 -3 3 C-2.01 3 -1.02 3 0 3 C0 2.01 0 1.02 0 0 Z " fill="#DDAA4F" transform="translate(147,164)"/>
<path d="M0 0 C1.875 1.1875 1.875 1.1875 2.875 3.1875 C2.215 3.8475 1.555 4.5075 0.875 5.1875 C0.1634375 5.991875 0.1634375 5.991875 -0.5625 6.8125 C-2.125 8.1875 -2.125 8.1875 -5.125 8.1875 C-5.125 5.52083333 -5.125 2.85416667 -5.125 0.1875 C-2.125 -0.8125 -2.125 -0.8125 0 0 Z " fill="#343233" transform="translate(84.125,127.8125)"/>
<path d="M0 0 C0.99 0 1.98 0 3 0 C3 0.66 3 1.32 3 2 C4.2065625 2.309375 4.2065625 2.309375 5.4375 2.625 C6.283125 3.07875 7.12875 3.5325 8 4 C8.8125 7.125 8.8125 7.125 9 10 C8.01 9.67 7.02 9.34 6 9 C5.67 9.99 5.34 10.98 5 12 C4.72285156 11.30132812 4.44570312 10.60265625 4.16015625 9.8828125 C3.79792969 8.97273437 3.43570313 8.06265625 3.0625 7.125 C2.70285156 6.22007812 2.34320313 5.31515625 1.97265625 4.3828125 C1.05098738 2.03862333 1.05098738 2.03862333 0 0 Z " fill="#EBBB65" transform="translate(140,142)"/>
<path d="M0 0 C0.33 1.32 0.66 2.64 1 4 C0.34 4 -0.32 4 -1 4 C-1 4.66 -1 5.32 -1 6 C-2.58960328 7.80636736 -3.83852297 8.91926148 -6 10 C-6.33 9.01 -6.66 8.02 -7 7 C-9.97 6.505 -9.97 6.505 -13 6 C-13 5.67 -13 5.34 -13 5 C-11.783125 4.731875 -10.56625 4.46375 -9.3125 4.1875 C-5.77878956 3.31505639 -3.0231718 2.07843061 0 0 Z " fill="#5C5B5B" transform="translate(183,197)"/>
<path d="M0 0 C1.33333333 0.66666667 2.66666667 1.33333333 4 2 C5.0828125 2.4640625 5.0828125 2.4640625 6.1875 2.9375 C8 4 8 4 9 7 C7.25 7.6875 7.25 7.6875 5 8 C3 6.625 3 6.625 1 5 C-1.14733927 4.29485154 -1.14733927 4.29485154 -3 4 C-3 3.34 -3 2.68 -3 2 C-2.01 1.34 -1.02 0.68 0 0 Z " fill="#F4B23F" transform="translate(184,155)"/>
<path d="M0 0 C0.33 0 0.66 0 1 0 C1.48009262 2.06228466 1.95903544 4.12483701 2.4375 6.1875 C2.83775391 7.91033203 2.83775391 7.91033203 3.24609375 9.66796875 C3.87312201 12.43923875 4.45899177 15.21091874 5 18 C4.01 17.34 3.02 16.68 2 16 C0.0103005 15.60986284 -1.99019869 15.26797351 -4 15 C-4 14.34 -4 13.68 -4 13 C-2.35 13 -0.7 13 1 13 C0.67 8.71 0.34 4.42 0 0 Z " fill="#392F20" transform="translate(20,182)"/>
<path d="M0 0 C-1.98 0.99 -1.98 0.99 -4 2 C-4 4.31 -4 6.62 -4 9 C-4.99 9.495 -4.99 9.495 -6 10 C-6 6.7 -6 3.4 -6 0 C-7.32 0 -8.64 0 -10 0 C-10 0.66 -10 1.32 -10 2 C-12.64 2.33 -15.28 2.66 -18 3 C-13.11061867 -1.88938133 -6.12502962 -3.06251481 0 0 Z " fill="#EABD63" transform="translate(140,141)"/>
<path d="M0 0 C0 0.99 0 1.98 0 3 C3.62885324 3.15149298 3.62885324 3.15149298 7 2 C7.66 2.66 8.32 3.32 9 4 C8.67 4.99 8.34 5.98 8 7 C6.5608866 6.71640113 5.12374482 6.42278601 3.6875 6.125 C2.88699219 5.96257812 2.08648437 5.80015625 1.26171875 5.6328125 C-1 5 -1 5 -4 3 C-4 2.34 -4 1.68 -4 1 C-2 0 -2 0 0 0 Z " fill="#454644" transform="translate(38,217)"/>
<path d="M0 0 C1.98 0.66 3.96 1.32 6 2 C6 3.65 6 5.3 6 7 C2 7 2 7 -0.25 5 C-0.8275 4.34 -1.405 3.68 -2 3 C-1.34 2.01 -0.68 1.02 0 0 Z " fill="#303331" transform="translate(152,197)"/>
<path d="M0 0 C2 3 2 3 2 6 C2.99 6.33 3.98 6.66 5 7 C1.34920174 8.61064629 -2.0507432 9.44894091 -6 10 C-4.02 6.7 -2.04 3.4 0 0 Z " fill="#4B4C4B" transform="translate(74,188)"/>
<path d="M0 0 C0.99 0.33 1.98 0.66 3 1 C3.33 2.65 3.66 4.3 4 6 C4.99 6 5.98 6 7 6 C6.67 8.31 6.34 10.62 6 13 C6.66 13.33 7.32 13.66 8 14 C7.01 15.485 7.01 15.485 6 17 C4.99580363 14.5433053 3.99649499 12.08481647 3 9.625 C2.71382812 8.92632812 2.42765625 8.22765625 2.1328125 7.5078125 C0 2.2265625 0 2.2265625 0 0 Z " fill="#E3AF4E" transform="translate(129,172)"/>
<path d="M0 0 C0.4125 0.37511719 0.825 0.75023437 1.25 1.13671875 C6.89372632 6.13796729 12.80225048 10.5257736 20 13 C20 13.33 20 13.66 20 14 C18.02 14 16.04 14 14 14 C14 13.34 14 12.68 14 12 C13.113125 11.773125 12.22625 11.54625 11.3125 11.3125 C7.51954012 9.80962911 5.71201907 8.00521032 3 5 C2.401875 4.443125 1.80375 3.88625 1.1875 3.3125 C0 2 0 2 0 0 Z " fill="#443317" transform="translate(27,203)"/>
<path d="M0 0 C2.475 0.495 2.475 0.495 5 1 C5.185625 1.886875 5.37125 2.77375 5.5625 3.6875 C7.51562538 8.18818022 9.89075404 9.41269699 14 12 C13.01 12.495 13.01 12.495 12 13 C6.38536697 9.27962423 2.92935801 6.10282919 0 0 Z " fill="#45351B" transform="translate(145,195)"/>
<path d="M0 0 C0.66 0.33 1.32 0.66 2 1 C-0.31 6.28 -2.62 11.56 -5 17 C-5.33 17 -5.66 17 -6 17 C-5.8864371 15.35333797 -5.75882619 13.70763918 -5.625 12.0625 C-5.55539063 11.14597656 -5.48578125 10.22945312 -5.4140625 9.28515625 C-5.27742188 8.53105469 -5.14078125 7.77695313 -5 7 C-4.34 6.67 -3.68 6.34 -3 6 C-1.95191959 4.02477154 -0.9479589 2.02518491 0 0 Z " fill="#E4AD4F" transform="translate(95,171)"/>
<path d="M0 0 C1.65 0 3.3 0 5 0 C4.67 1.32 4.34 2.64 4 4 C6.64 4 9.28 4 12 4 C12 4.33 12 4.66 12 5 C5.565 5.495 5.565 5.495 -1 6 C-0.67 4.02 -0.34 2.04 0 0 Z " fill="#343435" transform="translate(47,159)"/>
<path d="M0 0 C1.33333333 0.66666667 2.66666667 1.33333333 4 2 C5.0828125 2.433125 5.0828125 2.433125 6.1875 2.875 C8 4 8 4 8.75 6.125 C8.87375 7.053125 8.87375 7.053125 9 8 C4.48521602 7.46884894 1.65333143 5.63379708 -2 3 C-1.34 2.67 -0.68 2.34 0 2 C0 1.34 0 0.68 0 0 Z " fill="#535553" transform="translate(146,214)"/>
<path d="M0 0 C1 3 1 3 1 7 C0.01 7 -0.98 7 -2 7 C-2.66 10.96 -3.32 14.92 -4 19 C-4.33 19 -4.66 19 -5 19 C-5.50724362 12.15221113 -3.99098933 7.16215874 -1 1 C-0.67 0.67 -0.34 0.34 0 0 Z " fill="#40321C" transform="translate(33,167)"/>
<path d="M0 0 C1.55165682 0.44606151 3.07669921 0.98384447 4.58984375 1.546875 C1.4372491 2.56020899 -0.25523048 2.35814163 -3.41015625 1.546875 C-5.74215013 1.46782436 -8.07848247 1.45888731 -10.41015625 1.546875 C-10.74015625 1.876875 -11.07015625 2.206875 -11.41015625 2.546875 C-13.74960361 2.25957445 -16.08407055 1.92750721 -18.41015625 1.546875 C-13.20826929 -1.92104964 -6.03426351 -1.13448066 0 0 Z " fill="#D4A74C" transform="translate(63.41015625,150.453125)"/>
<path d="M0 0 C3.45826342 -0.05789006 6.91640293 -0.09355821 10.375 -0.125 C11.35984375 -0.14175781 12.3446875 -0.15851563 13.359375 -0.17578125 C14.77089844 -0.18544922 14.77089844 -0.18544922 16.2109375 -0.1953125 C17.51490479 -0.21102295 17.51490479 -0.21102295 18.84521484 -0.22705078 C21 0 21 0 23 2 C21.42412109 1.96519531 21.42412109 1.96519531 19.81640625 1.9296875 C12.23138758 1.81410626 5.35868111 1.89751968 -2 4 C-2 3.34 -2 2.68 -2 2 C-1.34 2 -0.68 2 0 2 C0 1.34 0 0.68 0 0 Z " fill="#3B2D14" transform="translate(157,149)"/>
<path d="M0 0 C0.66 1.32 1.32 2.64 2 4 C2.66 4 3.32 4 4 4 C4.144375 4.78375 4.28875 5.5675 4.4375 6.375 C4.87798925 8.96421018 4.87798925 8.96421018 6 11 C6.99 11 7.98 11 9 11 C9 11.99 9 12.98 9 14 C6.67578125 13.87890625 6.67578125 13.87890625 4 13 C2.41796875 10.27734375 2.41796875 10.27734375 1.1875 6.9375 C0.76855469 5.83277344 0.34960938 4.72804687 -0.08203125 3.58984375 C-0.38496094 2.73519531 -0.68789062 1.88054687 -1 1 C-0.67 0.67 -0.34 0.34 0 0 Z " fill="#44321F" transform="translate(146,140)"/>
<path d="M0 0 C2 1 2 1 3 3 C2.0625 5.625 2.0625 5.625 1 8 C-1.31 7.34 -3.62 6.68 -6 6 C-5.01 5.67 -4.02 5.34 -3 5 C-3 4.01 -3 3.02 -3 2 C-2.01 1.34 -1.02 0.68 0 0 Z " fill="#C1C3C1" transform="translate(110,130)"/>
<path d="M0 0 C1.52834998 4.36671422 0.1520912 6.85071903 -1.7421875 10.87109375 C-3.37144506 13.62868807 -5.31621278 15.28535817 -8 17 C-8.66 16.67 -9.32 16.34 -10 16 C-9.52949219 15.43152344 -9.05898437 14.86304688 -8.57421875 14.27734375 C-4.86192597 9.67348582 -2.01376553 5.56746941 0 0 Z " fill="#40331C" transform="translate(87,193)"/>
<path d="M0 0 C1.61949011 2.57213134 2.04408751 3.67669159 1.625 6.75 C1.41875 7.4925 1.2125 8.235 1 9 C-4.75 6.375 -4.75 6.375 -7 3 C-4.03 3.495 -4.03 3.495 -1 4 C-0.67 2.68 -0.34 1.36 0 0 Z " fill="#3B3223" transform="translate(44,200)"/>
<path d="M0 0 C1.65 0 3.3 0 5 0 C5.99 1.98 6.98 3.96 8 6 C4.23312136 6 3.08809695 5.76462683 0 4 C0 2.68 0 1.36 0 0 Z " fill="#343131" transform="translate(186,168)"/>
<path d="M0 0 C4.96258091 0.68924735 7.51287625 2.51287625 11 6 C10.01 7.485 10.01 7.485 9 9 C7.68412059 7.87895467 6.37239647 6.75303035 5.0625 5.625 C4.33160156 4.99851563 3.60070312 4.37203125 2.84765625 3.7265625 C1 2 1 2 0 0 Z " fill="#343028" transform="translate(190,156)"/>
<path d="M0 0 C1.65 0 3.3 0 5 0 C4.01 0.7734375 4.01 0.7734375 3 1.5625 C-0.75333644 4.61208585 -4.37602035 7.7986681 -8 11 C-8.625 9.125 -8.625 9.125 -9 7 C-8.34 6.34 -7.68 5.68 -7 5 C-6.01 5 -5.02 5 -4 5 C-3.67 4.01 -3.34 3.02 -3 2 C-2.34 2 -1.68 2 -1 2 C-0.67 1.34 -0.34 0.68 0 0 Z " fill="#E4AE50" transform="translate(41,157)"/>
<path d="M0 0 C2.6766477 0.91397726 4.42046542 2.05030387 6.5625 3.875 C4.9228125 4.0915625 4.9228125 4.0915625 3.25 4.3125 C-0.36872987 4.75788104 -0.36872987 4.75788104 -3.4375 5.875 C-3.4375 5.215 -3.4375 4.555 -3.4375 3.875 C-4.0975 3.545 -4.7575 3.215 -5.4375 2.875 C-3.64582445 0.51753217 -3.03668391 -0.15572738 0 0 Z " fill="#4C4B4B" transform="translate(184.4375,144.125)"/>
<path d="M0 0 C0.33 0.66 0.66 1.32 1 2 C2.32 1.67 3.64 1.34 5 1 C5 1.99 5 2.98 5 4 C4.01 4 3.02 4 2 4 C2.33 5.65 2.66 7.3 3 9 C1.68 9 0.36 9 -1 9 C-1 8.34 -1 7.68 -1 7 C-1.66 7 -2.32 7 -3 7 C-1.125 2.25 -1.125 2.25 0 0 Z " fill="#333231" transform="translate(201,198)"/>
<path d="M0 0 C0 1.65 0 3.3 0 5 C0.66 5 1.32 5 2 5 C0.25 9.875 0.25 9.875 -2 11 C-3.83832664 7.89782379 -4.47446226 5.60591321 -4 2 C-1 0 -1 0 0 0 Z M-2 6 C-1.67 6.66 -1.34 7.32 -1 8 C-0.67 7.34 -0.34 6.68 0 6 C-0.66 6 -1.32 6 -2 6 Z " fill="#434041" transform="translate(89,199)"/>
<path d="M0 0 C2 2 2 2 2.125 4.625 C2.08375 5.40875 2.0425 6.1925 2 7 C2.99 7.33 3.98 7.66 5 8 C4.67 8.66 4.34 9.32 4 10 C4.99 10.33 5.98 10.66 7 11 C7.33 12.65 7.66 14.3 8 16 C3.48490122 12.94925758 1.71858804 10.15576412 0 5 C-0.1875 2.0625 -0.1875 2.0625 0 0 Z " fill="#3C2E1B" transform="translate(29,187)"/>
<path d="M0 0 C0.66 0.33 1.32 0.66 2 1 C1.34 2.65 0.68 4.3 0 6 C-2.31 6.33 -4.62 6.66 -7 7 C-7.33 6.01 -7.66 5.02 -8 4 C-6.71349294 3.30289269 -5.42059335 2.61757124 -4.125 1.9375 C-3.40570313 1.55464844 -2.68640625 1.17179688 -1.9453125 0.77734375 C-1.30335938 0.52082031 -0.66140625 0.26429687 0 0 Z " fill="#313033" transform="translate(141,127)"/>
<path d="M0 0 C3.63 0 7.26 0 11 0 C9.02 0.99 9.02 0.99 7 2 C6.21625 2.53625 5.4325 3.0725 4.625 3.625 C1.53219627 5.24504005 -0.55712514 5.24020057 -4 5 C-3.34 4.54625 -2.68 4.0925 -2 3.625 C-1.34 3.08875 -0.68 2.5525 0 2 C0 1.34 0 0.68 0 0 Z " fill="#313032" transform="translate(165,219)"/>
<path d="M0 0 C0.66 0.33 1.32 0.66 2 1 C4.37123246 1.23029956 6.74741943 1.41119942 9.125 1.5625 C10.40632812 1.64628906 11.68765625 1.73007813 13.0078125 1.81640625 C14.48894531 1.90728516 14.48894531 1.90728516 16 2 C11.74959711 4.83360193 7.98846654 4.41305774 3 4 C-0.125 3 -0.125 3 -2 2 C-1.34 1.34 -0.68 0.68 0 0 Z " fill="#523D19" transform="translate(161,207)"/>
<path d="M0 0 C2.8125 0.625 2.8125 0.625 6 2 C7.875 5.125 7.875 5.125 9 8 C6 8 6 8 4.39453125 6.7578125 C3.87246094 6.21898437 3.35039062 5.68015625 2.8125 5.125 C2.28269531 4.59132812 1.75289062 4.05765625 1.20703125 3.5078125 C0 2 0 2 0 0 Z " fill="#444445" transform="translate(136,207)"/>
<path d="M0 0 C1.98 1.65 3.96 3.3 6 5 C5.34 6.65 4.68 8.3 4 10 C3 9 2 8 1 7 C0.1646875 6.2265625 0.1646875 6.2265625 -0.6875 5.4375 C-2 4 -2 4 -2 2 C-1.34 2 -0.68 2 0 2 C0 1.34 0 0.68 0 0 Z " fill="#474749" transform="translate(39,194)"/>
<path d="M0 0 C5.55944056 0.49417249 5.55944056 0.49417249 7.6875 2.9375 C8.120625 3.618125 8.55375 4.29875 9 5 C9.99 5.66 10.98 6.32 12 7 C10.02 7.99 10.02 7.99 8 9 C7.4225 8.21625 6.845 7.4325 6.25 6.625 C4.17102363 4.19952756 2.90959667 3.14305583 0 2 C0 1.34 0 0.68 0 0 Z " fill="#51524E" transform="translate(63,165)"/>
<path d="M0 0 C6.67353409 0.28398017 10.71077185 3.07805532 16 7 C15.01 7.33 14.02 7.66 13 8 C12.608125 7.525625 12.21625 7.05125 11.8125 6.5625 C9.59191626 4.64820367 7.86624291 4.38733012 5 4 C5 3.34 5 2.68 5 2 C3.35 1.67 1.7 1.34 0 1 C0 0.67 0 0.34 0 0 Z " fill="#D8A951" transform="translate(176,151)"/>
<path d="M0 0 C5.75 1.75 5.75 1.75 8 4 C2.25 8 2.25 8 0 8 C0 7.34 0 6.68 0 6 C0.66 5.67 1.32 5.34 2 5 C1.34 3.35 0.68 1.7 0 0 Z " fill="#382E22" transform="translate(64,201)"/>
<path d="M0 0 C1.32 0.33 2.64 0.66 4 1 C3.39301257 5.12751449 1.96189209 8.3321148 0 12 C-0.66 11.34 -1.32 10.68 -2 10 C-1.625 7.875 -1.625 7.875 -1 6 C-0.34 6 0.32 6 1 6 C0.67 4.02 0.34 2.04 0 0 Z " fill="#50524E" transform="translate(92,192)"/>
<path d="M0 0 C2.64 0 5.28 0 8 0 C5.16569547 3.2542015 3.31392226 4.5206753 -1 5 C-0.67 3.35 -0.34 1.7 0 0 Z " fill="#41361F" transform="translate(179,204)"/>
<path d="M0 0 C0.9590625 0.2784375 0.9590625 0.2784375 1.9375 0.5625 C2.9584375 0.7790625 2.9584375 0.7790625 4 1 C4.33 0.67 4.66 0.34 5 0 C6.99958364 -0.04080783 9.00045254 -0.04254356 11 0 C11.33 0.66 11.66 1.32 12 2 C7.87831311 3.62950412 5.29299643 4.26264601 1 3 C0.67 2.01 0.34 1.02 0 0 Z " fill="#343539" transform="translate(30,150)"/>
<path d="M0 0 C0.33 0 0.66 0 1 0 C1 1.65 1 3.3 1 5 C1.99 5.33 2.98 5.66 4 6 C3.01 7.485 3.01 7.485 2 9 C-0.97 8.505 -0.97 8.505 -4 8 C-3.34 7.67 -2.68 7.34 -2 7 C-1.26924352 4.6859378 -0.59861742 2.35171131 0 0 Z " fill="#535154" transform="translate(72,137)"/>
<path d="M0 0 C0.66 0 1.32 0 2 0 C2 0.66 2 1.32 2 2 C2.99 2.33 3.98 2.66 5 3 C4.71758359 4.46015291 4.42373386 5.91809793 4.125 7.375 C3.96257812 8.18710938 3.80015625 8.99921875 3.6328125 9.8359375 C3 12 3 12 1 14 C1 12.35 1 10.7 1 9 C1.66 9 2.32 9 3 9 C2.01 6.03 1.02 3.06 0 0 Z " fill="#F5BC58" transform="translate(90,139)"/>
<path d="M0 0 C1.875 0.1875 1.875 0.1875 4 1 C5.25 3.5625 5.25 3.5625 6 6 C4.35 6 2.7 6 1 6 C-0.0625 4.125 -0.0625 4.125 -1 2 C-0.67 1.34 -0.34 0.68 0 0 Z " fill="#303437" transform="translate(70,164)"/>
<path d="M0 0 C-3.26545761 1.88391785 -6.28111761 2.49287967 -10 3 C-9.625 1.0625 -9.625 1.0625 -9 -1 C-5.79937313 -2.60031344 -3.27728194 -1.03173691 0 0 Z " fill="#323130" transform="translate(188,163)"/>
<path d="M0 0 C0.66 0.33 1.32 0.66 2 1 C2 1.66 2 2.32 2 3 C4.97 3.495 4.97 3.495 8 4 C7.01 4.99 6.02 5.98 5 7 C2.36 5.68 -0.28 4.36 -3 3 C-2.01 2.01 -1.02 1.02 0 0 Z " fill="#48423C" transform="translate(67,198)"/>
<path d="M0 0 C0.33 0.66 0.66 1.32 1 2 C1.66 2.33 2.32 2.66 3 3 C1.9375 4.5625 1.9375 4.5625 0 6 C-3.6875 5.6875 -3.6875 5.6875 -7 5 C-7 4.34 -7 3.68 -7 3 C-3.535 2.505 -3.535 2.505 0 2 C0 1.34 0 0.68 0 0 Z " fill="#3E3B3C" transform="translate(68,161)"/>
<path d="M0 0 C2.79081339 1.3954067 3.03903006 3.01419041 4.1875 5.875 C4.55230469 6.75929687 4.91710937 7.64359375 5.29296875 8.5546875 C6 11 6 11 5 14 C2.90250005 11.64031256 2.03094296 10.45383006 1.8125 7.25 C1.874375 6.5075 1.93625 5.765 2 5 C1.34 5 0.68 5 0 5 C0 3.35 0 1.7 0 0 Z " fill="#45311D" transform="translate(117,146)"/>
<path d="M0 0 C0.66 0 1.32 0 2 0 C1.8125 1.875 1.8125 1.875 1 4 C-1.3125 5.4375 -1.3125 5.4375 -4 6 C-6.3125 4.625 -6.3125 4.625 -8 3 C-6.865625 2.690625 -5.73125 2.38125 -4.5625 2.0625 C-1.21224901 1.37075469 -1.21224901 1.37075469 0 0 Z " fill="#302E22" transform="translate(189,148)"/>
<path d="M0 0 C0.66 0 1.32 0 2 0 C2 0.99 2 1.98 2 3 C4.64 3 7.28 3 10 3 C10 3.33 10 3.66 10 4 C7.36 4 4.72 4 2 4 C1.67 4.99 1.34 5.98 1 7 C0.67 6.01 0.34 5.02 0 4 C-0.66 4 -1.32 4 -2 4 C-1.34 2.68 -0.68 1.36 0 0 Z " fill="#383235" transform="translate(43,145)"/>
<path d="M0 0 C3.14737182 0.69941596 6.02588876 1.76078698 9 3 C8.01 3.99 7.02 4.98 6 6 C4.02 5.01 2.04 4.02 0 3 C0 2.01 0 1.02 0 0 Z " fill="#F0B13D" transform="translate(145,202)"/>
<path d="M0 0 C1.32 0 2.64 0 4 0 C6 2.75 6 2.75 8 6 C9.29682374 7.36886951 10.61823134 8.7169291 12 10 C6.74308545 8.56629603 3.48214849 5.00396901 0 1 C0 0.67 0 0.34 0 0 Z " fill="#E1B059" transform="translate(28,203)"/>
<path d="M0 0 C2.31 0.66 4.62 1.32 7 2 C6.67 4.64 6.34 7.28 6 10 C3.9375 7.6875 3.9375 7.6875 2 5 C2.33 4.01 2.66 3.02 3 2 C2.01 2 1.02 2 0 2 C0 1.34 0 0.68 0 0 Z " fill="#332E23" transform="translate(16,170)"/>
<path d="M0 0 C-1.62445619 0.98006859 -3.24958261 1.95902636 -4.875 2.9375 C-5.77992187 3.48277344 -6.68484375 4.02804688 -7.6171875 4.58984375 C-9.05201636 5.43898017 -10.50875448 6.25437724 -12 7 C-12 5.68 -12 4.36 -12 3 C-10.68 3 -9.36 3 -8 3 C-7.67 2.01 -7.34 1.02 -7 0 C-2.25 -1.125 -2.25 -1.125 0 0 Z " fill="#433418" transform="translate(44,152)"/>
<path d="M0 0 C1.32 0.33 2.64 0.66 4 1 C4 1.99 4 2.98 4 4 C2.02 4.66 0.04 5.32 -2 6 C-1.34 4.02 -0.68 2.04 0 0 Z " fill="#393A3C" transform="translate(34,213)"/>
<path d="M0 0 C0.66 0 1.32 0 2 0 C1.38461538 5.53846154 1.38461538 5.53846154 -0.5625 7.875 C-1.2740625 8.431875 -1.2740625 8.431875 -2 9 C-2.66 8.01 -3.32 7.02 -4 6 C-3.67 5.01 -3.34 4.02 -3 3 C-2.01 3.33 -1.02 3.66 0 4 C0 2.68 0 1.36 0 0 Z " fill="#4E4F4F" transform="translate(206,198)"/>
<path d="M0 0 C2 2 2 2 2 6 C1.34 6 0.68 6 0 6 C0 5.34 0 4.68 0 4 C-1.32 4.99 -2.64 5.98 -4 7 C-4.33 5.35 -4.66 3.7 -5 2 C-3.68 2 -2.36 2 -1 2 C-0.67 1.34 -0.34 0.68 0 0 Z " fill="#403E41" transform="translate(138,199)"/>
<path d="M0 0 C1.65 0 3.3 0 5 0 C3.02 2.97 3.02 2.97 1 6 C0.01 5.67 -0.98 5.34 -2 5 C-2 4.01 -2 3.02 -2 2 C-1.34 2 -0.68 2 0 2 C0 1.34 0 0.68 0 0 Z " fill="#3E3521" transform="translate(26,160)"/>
<path d="M0 0 C2.97 0.495 2.97 0.495 6 1 C5.01 2.485 5.01 2.485 4 4 C1.6171875 4.29296875 1.6171875 4.29296875 -1.125 4.1875 C-2.03507812 4.16042969 -2.94515625 4.13335937 -3.8828125 4.10546875 C-4.58148438 4.07066406 -5.28015625 4.03585938 -6 4 C-6 3.67 -6 3.34 -6 3 C-4.02 3 -2.04 3 0 3 C0 2.01 0 1.02 0 0 Z " fill="#575556" transform="translate(52,221)"/>
<path d="M0 0 C0.33 0.66 0.66 1.32 1 2 C2.32 2 3.64 2 5 2 C5.33 3.32 5.66 4.64 6 6 C3.625 5.75 3.625 5.75 1 5 C-0.3125 2.9375 -0.3125 2.9375 -1 1 C-0.67 0.67 -0.34 0.34 0 0 Z " fill="#F8B23B" transform="translate(38,207)"/>
<path d="M0 0 C4.57478244 2.0214155 7.61831569 4.31993178 11 8 C10.01 8.495 10.01 8.495 9 9 C8.62875 8.5875 8.2575 8.175 7.875 7.75 C5.89630058 5.80047389 5.89630058 5.80047389 2.8125 3.9375 C1.884375 3.298125 0.95625 2.65875 0 2 C0 1.34 0 0.68 0 0 Z " fill="#483818" transform="translate(65,158)"/>
<path d="M0 0 C2 1 2 1 3.125 4.0625 C3.41375 5.031875 3.7025 6.00125 4 7 C2.68 6.67 1.36 6.34 0 6 C0 5.34 0 4.68 0 4 C-0.99 4 -1.98 4 -3 4 C-3 3.34 -3 2.68 -3 2 C-2.01 1.34 -1.02 0.68 0 0 Z " fill="#E4B045" transform="translate(143,138)"/>
<path d="M0 0 C0.33 0.66 0.66 1.32 1 2 C1.66 2.33 2.32 2.66 3 3 C2.01 3.495 2.01 3.495 1 4 C0.34227572 7.02934491 0.34227572 7.02934491 0 10 C-0.99 10 -1.98 10 -3 10 C-2.39009109 6.44219804 -1.4216319 3.3171411 0 0 Z " fill="#585858" transform="translate(129,20)"/>
<path d="M0 0 C-2.64 1.65 -5.28 3.3 -8 5 C-8.33 4.01 -8.66 3.02 -9 2 C-4.5 -1.125 -4.5 -1.125 0 0 Z " fill="#646763" transform="translate(81,217)"/>
<path d="M0 0 C0.66 0 1.32 0 2 0 C6 5.29411765 6 5.29411765 6 9 C4 7.6875 4 7.6875 2 6 C2 5.01 2 4.02 2 3 C1.01 2.67 0.02 2.34 -1 2 C-0.67 1.34 -0.34 0.68 0 0 Z " fill="#5F5D5E" transform="translate(151,191)"/>
<path d="M0 0 C0.33 0.99 0.66 1.98 1 3 C-1.64 3.33 -4.28 3.66 -7 4 C-6.67 3.01 -6.34 2.02 -6 1 C-4 0 -4 0 0 0 Z " fill="#3A3838" transform="translate(27,203)"/>
<path d="M0 0 C3.34905453 3.34905453 3.89470285 5.49378854 5 10 C3.68 9.67 2.36 9.34 1 9 C0.67 6.03 0.34 3.06 0 0 Z " fill="#4D3C1F" transform="translate(77,168)"/>
<path d="M0 0 C0.66 0 1.32 0 2 0 C2.185625 0.9590625 2.185625 0.9590625 2.375 1.9375 C2.684375 2.9584375 2.684375 2.9584375 3 4 C3.66 4.33 4.32 4.66 5 5 C5 6.65 5 8.3 5 10 C4.34 10 3.68 10 3 10 C2.01 6.7 1.02 3.4 0 0 Z " fill="#E4AF54" transform="translate(118,145)"/>
<path d="M0 0 C-1.485 1.485 -1.485 1.485 -3 3 C-3 2.34 -3 1.68 -3 1 C-5.31 1.33 -7.62 1.66 -10 2 C-6.64608848 -1.35391152 -4.35183427 -1.05855428 0 0 Z " fill="#5F615F" transform="translate(48,144)"/>
<path d="M0 0 C3.875 1.75 3.875 1.75 5 4 C4.34 4.66 3.68 5.32 3 6 C2.67 6.66 2.34 7.32 2 8 C1.34 8 0.68 8 0 8 C0 5.36 0 2.72 0 0 Z " fill="#2F2E27" transform="translate(82,127)"/>
<path d="M0 0 C0.598125 0.350625 1.19625 0.70125 1.8125 1.0625 C1.1525 1.0625 0.4925 1.0625 -0.1875 1.0625 C-0.5175 2.0525 -0.8475 3.0425 -1.1875 4.0625 C-1.1875 3.4025 -1.1875 2.7425 -1.1875 2.0625 C-2.8375 2.7225 -4.4875 3.3825 -6.1875 4.0625 C-5.875 2.125 -5.875 2.125 -5.1875 0.0625 C-2.1875 -0.9375 -2.1875 -0.9375 0 0 Z " fill="#59585A" transform="translate(82.1875,125.9375)"/>
<path d="M0 0 C1.67542976 0.28604898 3.34385343 0.61781233 5 1 C4.67 2.32 4.34 3.64 4 5 C3.01 5 2.02 5 1 5 C1 4.01 1 3.02 1 2 C0.34 1.67 -0.32 1.34 -1 1 C-0.67 0.67 -0.34 0.34 0 0 Z " fill="#494947" transform="translate(67,218)"/>
<path d="M0 0 C1.32 0.33 2.64 0.66 4 1 C4 3.31 4 5.62 4 8 C1.10067643 5.60490662 0.49831724 3.68754757 0 0 Z " fill="#636162" transform="translate(16,197)"/>
<path d="M0 0 C0.99 0.33 1.98 0.66 3 1 C1.69593116 3.01920337 0.36176581 5.01924973 -1 7 C-1.33 7 -1.66 7 -2 7 C-2 5.02 -2 3.04 -2 1 C-1.34 0.67 -0.68 0.34 0 0 Z " fill="#463821" transform="translate(77,195)"/>
<path d="M0 0 C0.66 0 1.32 0 2 0 C2.625 2.375 2.625 2.375 3 5 C2.34 5.66 1.68 6.32 1 7 C0.01 6.01 -0.98 5.02 -2 4 C-1.34 4 -0.68 4 0 4 C0 2.68 0 1.36 0 0 Z " fill="#514B4C" transform="translate(148,130)"/>
<path d="M0 0 C0 0.99 0 1.98 0 3 C0.66 3 1.32 3 2 3 C2 3.66 2 4.32 2 5 C0.35 4.67 -1.3 4.34 -3 4 C-3.33 3.01 -3.66 2.02 -4 1 C-2 0 -2 0 0 0 Z " fill="#565757" transform="translate(38,217)"/>
<path d="M0 0 C0.33 1.32 0.66 2.64 1 4 C-2 5 -2 5 -4.1875 4.0625 C-4.785625 3.711875 -5.38375 3.36125 -6 3 C-5.34 3 -4.68 3 -4 3 C-4 2.34 -4 1.68 -4 1 C-2.68 0.67 -1.36 0.34 0 0 Z " fill="#323436" transform="translate(186,200)"/>
<path d="M0 0 C0.66 0.33 1.32 0.66 2 1 C2 2.65 2 4.3 2 6 C0.35 6 -1.3 6 -3 6 C-2 4 -1 2 0 0 Z " fill="#F2B239" transform="translate(194,198)"/>
<path d="M0 0 C0.33 0.66 0.66 1.32 1 2 C1.66 2 2.32 2 3 2 C3 3.32 3 4.64 3 6 C2.01 6 1.02 6 0 6 C-0.66 4.68 -1.32 3.36 -2 2 C-1.34 1.34 -0.68 0.68 0 0 Z " fill="#323232" transform="translate(130,183)"/>
<path d="M0 0 C1.32 0 2.64 0 4 0 C4 1.32 4 2.64 4 4 C2.35 4.33 0.7 4.66 -1 5 C-0.67 3.35 -0.34 1.7 0 0 Z " fill="#444444" transform="translate(88,119)"/>
<path d="M0 0 C0 1.32 0 2.64 0 4 C-1.65 4.33 -3.3 4.66 -5 5 C-4.625 3.0625 -4.625 3.0625 -4 1 C-2 0 -2 0 0 0 Z " fill="#F1B433" transform="translate(79,202)"/>
<path d="M0 0 C0.99 0.33 1.98 0.66 3 1 C3.625 3.875 3.625 3.875 4 7 C3.34 7.66 2.68 8.32 2 9 C0.95550089 5.86650268 1.06576355 5.01031744 2 2 C1.34 2 0.68 2 0 2 C0 1.34 0 0.68 0 0 Z " fill="#383223" transform="translate(131,183)"/>
<path d="M0 0 C0.91007812 0.10183594 1.82015625 0.20367187 2.7578125 0.30859375 C3.45648438 0.39238281 4.15515625 0.47617188 4.875 0.5625 C4.875 0.8925 4.875 1.2225 4.875 1.5625 C-1.065 2.0575 -1.065 2.0575 -7.125 2.5625 C-7.125 1.9025 -7.125 1.2425 -7.125 0.5625 C-4.50184968 -0.74907516 -2.89466564 -0.33399988 0 0 Z " fill="#252525" transform="translate(54.125,162.4375)"/>
<path d="M0 0 C2.475 0.495 2.475 0.495 5 1 C5.33 2.65 5.66 4.3 6 6 C3.97945196 4.35830472 1.97956942 2.69088222 0 1 C0 0.67 0 0.34 0 0 Z " fill="#3D301B" transform="translate(190,156)"/>
<path d="M0 0 C1.32 0.33 2.64 0.66 4 1 C3.01 2.32 2.02 3.64 1 5 C0.01 4.67 -0.98 4.34 -2 4 C-1.34 2.68 -0.68 1.36 0 0 Z " fill="#F6B23C" transform="translate(39,155)"/>
<path d="M0 0 C2.1385485 2.1385485 2.42655063 3.13275314 3 6 C2.01 6.66 1.02 7.32 0 8 C-0.38063221 5.6739143 -0.71269945 3.33944736 -1 1 C-0.67 0.67 -0.34 0.34 0 0 Z " fill="#2E2E2E" transform="translate(144,15)"/>
</svg>
